<svg xmlns="http://www.w3.org/2000/svg" xmlns:xlink="http://www.w3.org/1999/xlink" width="1080" zoomAndPan="magnify" viewBox="0 0 810 809.999993" height="1080" preserveAspectRatio="xMidYMid meet" version="1.0"><defs><clipPath id="84537fd12d"><path d="M 0 21.355469 L 810 21.355469 L 810 788.605469 L 0 788.605469 Z M 0 21.355469 " clip-rule="nonzero"/></clipPath></defs><rect x="-81" width="972" fill="#ffffff" y="-80.999999" height="971.999992" fill-opacity="1"/><rect x="-81" width="972" fill="#ffffff" y="-80.999999" height="971.999992" fill-opacity="1"/><rect x="-81" width="972" fill="#ffffff" y="-80.999999" height="971.999992" fill-opacity="1"/><g clip-path="url(#84537fd12d)"><path fill="#3857ff" d="M 747.367188 604.089844 C 708.730469 565.453125 655.390625 541.457031 596.746094 541.457031 L 522.996094 541.457031 C 523.015625 540.484375 523.078125 539.515625 523.078125 538.542969 L 523.078125 503.148438 C 526.277344 500.371094 529.375 497.476562 532.371094 494.480469 C 541.484375 485.367188 549.644531 475.265625 556.671875 464.390625 C 593.589844 460.160156 622.425781 447.28125 629.796875 413 C 641.519531 410.691406 652.007812 404.898438 660.148438 396.757812 C 670.863281 386.046875 677.523438 371.246094 677.523438 354.984375 L 677.523438 289.4375 C 677.523438 273.15625 670.863281 258.375 660.148438 247.664062 L 659.320312 246.894531 C 652.253906 240.089844 643.523438 235.050781 633.84375 232.375 C 633.867188 232.132812 633.886719 231.910156 633.886719 231.667969 C 633.886719 173.734375 608.675781 121.128906 568.054688 83.019531 C 527.613281 45.09375 471.945312 21.5625 410.769531 21.5625 L 399.25 21.5625 C 338.074219 21.5625 282.40625 45.09375 241.988281 83.019531 C 201.367188 121.128906 176.15625 173.734375 176.15625 231.667969 C 176.15625 231.910156 176.175781 232.132812 176.195312 232.375 C 166.171875 235.128906 157.160156 240.457031 149.953125 247.644531 L 149.890625 247.703125 C 139.179688 258.4375 132.515625 273.21875 132.515625 289.4375 L 132.515625 354.984375 C 132.515625 370.820312 138.855469 385.257812 149.121094 395.929688 L 149.890625 396.757812 C 160.601562 407.46875 175.386719 414.132812 191.667969 414.132812 C 205.355469 414.132812 217.972656 409.414062 228.015625 401.558594 C 235.019531 437.417969 252.71875 469.574219 277.648438 494.5 C 282.324219 499.179688 287.246094 503.570312 292.410156 507.722656 L 292.410156 538.582031 C 292.410156 539.554688 292.449219 540.527344 292.492188 541.5 L 213.273438 541.5 C 154.609375 541.5 101.289062 565.492188 62.652344 604.128906 C 23.996094 642.722656 0 696.058594 0 754.703125 L 0 775.316406 C 0 782.523438 5.851562 788.375 13.0625 788.375 L 796.9375 788.375 C 804.148438 788.375 810 782.523438 810 775.316406 L 810 754.703125 C 810 696.058594 786.003906 642.722656 747.367188 604.089844 Z M 572.125 434.605469 C 576.417969 424.035156 579.757812 412.957031 581.984375 401.515625 C 588 406.234375 594.964844 409.820312 602.519531 411.925781 C 597.558594 423.445312 586.683594 430.453125 572.125 434.605469 Z M 641.640625 266.113281 C 647.636719 272.105469 651.363281 280.347656 651.363281 289.417969 L 651.363281 354.964844 C 651.363281 364.035156 647.636719 372.296875 641.640625 378.269531 C 635.648438 384.265625 627.386719 387.992188 618.3125 387.992188 C 609.242188 387.992188 600.980469 384.265625 595.003906 378.269531 L 594.945312 378.269531 C 588.992188 372.316406 585.285156 364.054688 585.285156 354.964844 L 585.285156 289.417969 C 585.285156 280.304688 588.992188 272.066406 594.945312 266.113281 L 595.003906 266.050781 C 600.960938 260.097656 609.222656 256.390625 618.332031 256.390625 C 627.140625 256.390625 635.183594 259.855469 641.074219 265.484375 Z M 259.828125 101.992188 C 295.546875 68.480469 344.878906 47.683594 399.230469 47.683594 L 410.75 47.683594 C 465.082031 47.683594 514.429688 68.480469 550.152344 101.992188 C 585.570312 135.222656 607.601562 180.984375 607.703125 231.261719 C 599.199219 232.820312 591.320312 236.222656 584.476562 241.042969 C 580.425781 198.195312 561.230469 159.582031 532.332031 130.6875 C 499.667969 98.023438 454.570312 77.734375 404.980469 77.734375 C 355.386719 77.734375 310.289062 98.023438 277.628906 130.6875 C 248.730469 159.582031 229.535156 198.195312 225.484375 241.042969 C 218.640625 236.222656 210.761719 232.820312 202.257812 231.261719 C 202.398438 180.984375 224.410156 135.222656 259.828125 101.992188 Z M 557.988281 239.261719 C 527.207031 239.140625 497.644531 235.191406 469.355469 227.457031 C 436.953125 218.585938 406.03125 204.65625 376.628906 185.683594 C 371.585938 182.441406 364.761719 183.03125 360.367188 187.464844 C 347.347656 200.503906 330.640625 211.378906 310.230469 220.066406 C 293.421875 227.214844 274.082031 232.84375 252.316406 237.011719 C 257.011719 202.976562 272.890625 172.378906 296.136719 149.132812 C 324.082031 121.1875 362.636719 103.835938 405.019531 103.835938 C 447.402344 103.835938 485.960938 121.1875 513.90625 149.132812 C 537.636719 172.882812 553.695312 204.332031 557.988281 239.261719 Z M 191.667969 387.992188 C 182.59375 387.992188 174.332031 384.265625 168.359375 378.269531 L 167.75 377.703125 C 162.121094 371.792969 158.660156 363.773438 158.660156 354.964844 L 158.660156 289.417969 C 158.660156 280.304688 162.363281 272.066406 168.316406 266.113281 L 168.378906 266.050781 C 174.332031 260.097656 182.59375 256.390625 191.707031 256.390625 C 200.820312 256.390625 209.0625 260.097656 215.015625 266.050781 L 215.015625 266.113281 C 221.007812 272.105469 224.734375 280.347656 224.734375 289.417969 L 224.734375 354.964844 C 224.734375 364.035156 221.007812 372.296875 215.015625 378.269531 C 209 384.265625 200.738281 387.992188 191.667969 387.992188 Z M 250.816406 367.132812 L 250.816406 263.824219 C 277 259.226562 300.207031 252.644531 320.394531 244.039062 C 340.160156 235.636719 357.066406 225.269531 371.140625 213 C 400.121094 230.613281 430.574219 243.816406 462.511719 252.542969 C 493.453125 261.007812 525.667969 265.261719 559.183594 265.28125 L 559.183594 367.113281 C 559.183594 393.214844 552.582031 417.835938 541.019531 439.445312 C 520.953125 440.78125 498.171875 439.949219 475.753906 439.097656 L 471.175781 438.9375 C 469.132812 432.234375 465.527344 426.222656 460.789062 421.359375 C 453.113281 413.503906 442.503906 408.625 430.839844 408.625 C 419.175781 408.625 408.5625 413.484375 400.890625 421.359375 C 393.316406 429.117188 388.617188 439.808594 388.617188 451.574219 C 388.617188 463.335938 393.316406 474.027344 400.890625 481.785156 C 408.5625 489.640625 419.175781 494.519531 430.839844 494.519531 C 442.503906 494.519531 453.113281 489.660156 460.789062 481.785156 C 465.34375 477.105469 468.828125 471.375 470.914062 464.996094 L 474.84375 465.140625 C 490.960938 465.746094 507.222656 466.355469 522.855469 466.234375 C 520 469.613281 517.023438 472.894531 513.90625 476.035156 C 485.960938 503.976562 447.402344 521.332031 405.019531 521.332031 C 379.28125 521.332031 354.984375 514.910156 333.597656 503.632812 C 326.511719 499.785156 319.769531 495.371094 313.449219 490.472656 C 312.597656 489.824219 311.6875 489.296875 310.757812 488.871094 C 305.632812 484.882812 300.734375 480.609375 296.136719 476.035156 C 268.171875 448.070312 250.816406 409.515625 250.816406 367.132812 Z M 446.917969 451.574219 C 446.917969 456.3125 445.074219 460.582031 442.097656 463.621094 C 439.222656 466.578125 435.214844 468.398438 430.796875 468.398438 C 426.382812 468.398438 422.375 466.578125 419.5 463.621094 C 416.523438 460.582031 414.679688 456.3125 414.679688 451.574219 C 414.679688 446.835938 416.523438 442.5625 419.5 439.523438 C 422.375 436.566406 426.382812 434.746094 430.796875 434.746094 C 435.214844 434.746094 439.222656 436.566406 442.097656 439.523438 C 445.074219 442.5625 446.917969 446.835938 446.917969 451.574219 Z M 331.148438 531.515625 C 336.453125 533.964844 341.878906 536.195312 347.449219 538.097656 C 364.054688 543.808594 381.792969 547.007812 400.179688 547.351562 C 400.363281 547.351562 400.546875 547.351562 400.726562 547.371094 C 401.597656 547.390625 402.449219 547.433594 403.320312 547.433594 L 412.109375 547.433594 C 431.609375 547.433594 450.421875 544.152344 467.996094 538.117188 C 478.0625 534.65625 487.742188 530.261719 496.914062 525.054688 L 496.914062 538.542969 C 496.914062 562.316406 487.175781 583.921875 471.5 599.59375 C 455.828125 615.265625 434.199219 625.007812 410.445312 625.007812 L 405 625.007812 C 381.226562 625.007812 359.621094 615.265625 343.945312 599.59375 C 328.273438 583.921875 318.53125 562.292969 318.53125 538.542969 L 318.53125 525.199219 C 322.644531 527.445312 326.855469 529.570312 331.148438 531.515625 Z M 26.121094 754.703125 C 26.121094 703.25 47.183594 656.472656 81.101562 622.535156 C 115.019531 588.617188 161.816406 567.558594 213.273438 567.558594 L 296.257812 567.558594 C 301.460938 586.917969 311.6875 604.25 325.476562 618.039062 C 342.953125 635.515625 366.160156 647.300781 391.9375 650.316406 L 391.9375 762.234375 L 26.121094 762.234375 Z M 783.878906 762.253906 L 418.0625 762.253906 L 418.0625 650.84375 C 446.027344 648.960938 471.277344 636.789062 489.988281 618.0625 C 503.78125 604.269531 514.003906 586.917969 519.210938 567.578125 L 596.726562 567.578125 C 648.183594 567.578125 694.960938 588.640625 728.878906 622.554688 C 762.796875 656.472656 783.855469 703.269531 783.855469 754.722656 L 783.855469 762.253906 Z M 783.878906 762.253906 " fill-opacity="1" fill-rule="nonzero"/></g></svg>