<svg xmlns="http://www.w3.org/2000/svg" xmlns:xlink="http://www.w3.org/1999/xlink" width="1080" zoomAndPan="magnify" viewBox="0 0 810 809.999993" height="1080" preserveAspectRatio="xMidYMid meet" version="1.0"><rect x="-81" width="972" fill="#ffffff" y="-80.999999" height="971.999992" fill-opacity="1"/><rect x="-81" width="972" fill="#ffffff" y="-80.999999" height="971.999992" fill-opacity="1"/><rect x="-81" width="972" fill="#ffffff" y="-80.999999" height="971.999992" fill-opacity="1"/><path fill="#3857ff" d="M 765.292969 680.734375 L 719.976562 654.605469 C 727.378906 638.171875 731.613281 620.105469 731.613281 600.96875 C 731.613281 533.347656 679.96875 477.570312 614.03125 470.984375 L 614.03125 418.726562 C 708.800781 425.464844 783.871094 504.515625 783.871094 600.96875 C 783.871094 629.597656 777.082031 656.59375 765.292969 680.734375 Z M 600.96875 783.871094 C 538.042969 783.871094 482.519531 751.925781 449.550781 703.441406 L 495.074219 677.210938 C 518.855469 710.078125 557.386719 731.613281 600.96875 731.613281 C 644.550781 731.613281 683.082031 710.078125 706.863281 677.210938 L 752.382812 703.441406 C 719.414062 751.925781 663.890625 783.871094 600.96875 783.871094 Z M 587.902344 418.726562 L 587.902344 470.984375 C 521.96875 477.570312 470.324219 533.347656 470.324219 600.96875 C 470.324219 620.105469 474.558594 638.171875 481.957031 654.605469 L 436.640625 680.734375 C 424.851562 656.59375 418.066406 629.597656 418.066406 600.96875 C 418.066406 504.515625 493.132812 425.464844 587.902344 418.726562 Z M 418.066406 500.023438 C 411.839844 511.300781 406.632812 523.191406 402.550781 535.644531 L 391.933594 535.644531 L 391.933594 431.128906 L 418.066406 431.128906 Z M 600.96875 705.484375 C 543.351562 705.484375 496.453125 658.585938 496.453125 600.96875 C 496.453125 543.351562 543.351562 496.453125 600.96875 496.453125 C 658.585938 496.453125 705.484375 543.351562 705.484375 600.96875 C 705.484375 658.585938 658.585938 705.484375 600.96875 705.484375 Z M 365.804688 300.484375 C 365.804688 307.679688 359.9375 313.546875 352.742188 313.546875 C 345.546875 313.546875 339.675781 307.679688 339.675781 300.484375 C 339.675781 293.289062 345.546875 287.417969 352.742188 287.417969 C 359.9375 287.417969 365.804688 293.289062 365.804688 300.484375 Z M 457.257812 182.902344 C 457.257812 175.707031 463.125 169.839844 470.324219 169.839844 C 477.519531 169.839844 483.386719 175.707031 483.386719 182.902344 C 483.386719 190.097656 477.519531 195.96875 470.324219 195.96875 C 463.125 195.96875 457.257812 190.097656 457.257812 182.902344 Z M 548.710938 248.226562 C 555.90625 248.226562 561.773438 254.09375 561.773438 261.289062 C 561.773438 268.484375 555.90625 274.355469 548.710938 274.355469 C 541.515625 274.355469 535.644531 268.484375 535.644531 261.289062 C 535.644531 254.09375 541.515625 248.226562 548.710938 248.226562 Z M 26.128906 117.582031 L 630.925781 117.582031 C 634.039062 127.992188 639.039062 137.585938 645.417969 146.109375 L 565.5 226.027344 C 560.394531 223.578125 554.730469 222.097656 548.710938 222.097656 C 542.6875 222.097656 537.023438 223.578125 531.917969 226.027344 L 505.585938 199.691406 C 508.035156 194.589844 509.515625 188.925781 509.515625 182.902344 C 509.515625 161.265625 491.960938 143.710938 470.324219 143.710938 C 448.683594 143.710938 431.128906 161.265625 431.128906 182.902344 C 431.128906 188.925781 432.609375 194.589844 435.058594 199.691406 L 369.53125 265.21875 C 364.429688 262.769531 358.765625 261.289062 352.742188 261.289062 C 331.105469 261.289062 313.546875 278.847656 313.546875 300.484375 C 313.546875 322.121094 331.105469 339.675781 352.742188 339.675781 C 374.378906 339.675781 391.933594 322.121094 391.933594 300.484375 C 391.933594 294.460938 390.457031 288.796875 388.007812 283.695312 L 453.53125 218.167969 C 458.636719 220.617188 464.300781 222.097656 470.324219 222.097656 C 476.34375 222.097656 482.007812 220.617188 487.113281 218.167969 L 513.445312 244.5 C 510.996094 249.605469 509.515625 255.269531 509.515625 261.289062 C 509.515625 282.929688 527.070312 300.484375 548.710938 300.484375 C 570.347656 300.484375 587.902344 282.929688 587.902344 261.289062 C 587.902344 255.269531 586.421875 249.605469 583.972656 244.5 L 663.890625 164.582031 C 675.832031 173.5625 690.019531 179.636719 705.484375 181.832031 L 705.484375 420.207031 C 674.710938 402.347656 639.039062 391.933594 600.96875 391.933594 C 538.503906 391.933594 482.519531 419.59375 444.195312 463.179688 L 444.195312 405 L 365.804688 405 L 365.804688 561.773438 L 395.761719 561.773438 C 394.128906 570.296875 393.160156 579.074219 392.597656 587.902344 L 26.128906 587.902344 Z M 718.546875 26.128906 C 754.578125 26.128906 783.871094 55.421875 783.871094 91.453125 C 783.871094 127.480469 754.578125 156.773438 718.546875 156.773438 C 682.519531 156.773438 653.226562 127.480469 653.226562 91.453125 C 653.226562 55.421875 682.519531 26.128906 718.546875 26.128906 Z M 731.613281 438.070312 L 731.613281 181.832031 C 775.859375 175.503906 810 137.433594 810 91.453125 C 810 41.03125 768.96875 0 718.546875 0 C 668.128906 0 627.097656 41.03125 627.097656 91.453125 L 0 91.453125 L 0 614.03125 L 392.597656 614.03125 C 399.386719 723.191406 490.125 810 600.96875 810 C 716.25 810 810 716.25 810 600.96875 C 810 535.136719 779.328125 476.394531 731.613281 438.070312 " fill-opacity="1" fill-rule="nonzero"/><path fill="#3857ff" d="M 600.96875 653.226562 C 572.132812 653.226562 548.710938 629.800781 548.710938 600.96875 C 548.710938 572.132812 572.132812 548.710938 600.96875 548.710938 C 629.800781 548.710938 653.226562 572.132812 653.226562 600.96875 C 653.226562 629.800781 629.800781 653.226562 600.96875 653.226562 Z M 600.96875 522.582031 C 557.742188 522.582031 522.582031 557.742188 522.582031 600.96875 C 522.582031 644.191406 557.742188 679.355469 600.96875 679.355469 C 644.191406 679.355469 679.355469 644.191406 679.355469 600.96875 C 679.355469 557.742188 644.191406 522.582031 600.96875 522.582031 " fill-opacity="1" fill-rule="nonzero"/><path fill="#3857ff" d="M 78.386719 143.710938 L 52.257812 143.710938 L 52.257812 169.839844 L 78.386719 169.839844 L 78.386719 143.710938 " fill-opacity="1" fill-rule="nonzero"/><path fill="#3857ff" d="M 287.417969 143.710938 L 104.515625 143.710938 L 104.515625 169.839844 L 287.417969 169.839844 L 287.417969 143.710938 " fill-opacity="1" fill-rule="nonzero"/><path fill="#3857ff" d="M 78.386719 195.96875 L 52.257812 195.96875 L 52.257812 222.097656 L 78.386719 222.097656 L 78.386719 195.96875 " fill-opacity="1" fill-rule="nonzero"/><path fill="#3857ff" d="M 287.417969 195.96875 L 104.515625 195.96875 L 104.515625 222.097656 L 287.417969 222.097656 L 287.417969 195.96875 " fill-opacity="1" fill-rule="nonzero"/><path fill="#3857ff" d="M 78.386719 248.226562 L 52.257812 248.226562 L 52.257812 274.355469 L 78.386719 274.355469 L 78.386719 248.226562 " fill-opacity="1" fill-rule="nonzero"/><path fill="#3857ff" d="M 287.417969 248.226562 L 104.515625 248.226562 L 104.515625 274.355469 L 287.417969 274.355469 L 287.417969 248.226562 " fill-opacity="1" fill-rule="nonzero"/><path fill="#3857ff" d="M 78.386719 300.484375 L 52.257812 300.484375 L 52.257812 326.613281 L 78.386719 326.613281 L 78.386719 300.484375 " fill-opacity="1" fill-rule="nonzero"/><path fill="#3857ff" d="M 287.417969 300.484375 L 104.515625 300.484375 L 104.515625 326.613281 L 287.417969 326.613281 L 287.417969 300.484375 " fill-opacity="1" fill-rule="nonzero"/><path fill="#3857ff" d="M 78.386719 457.257812 L 104.515625 457.257812 L 104.515625 535.644531 L 78.386719 535.644531 Z M 52.257812 561.773438 L 130.644531 561.773438 L 130.644531 431.128906 L 52.257812 431.128906 L 52.257812 561.773438 " fill-opacity="1" fill-rule="nonzero"/><path fill="#3857ff" d="M 182.902344 483.386719 L 209.03125 483.386719 L 209.03125 535.644531 L 182.902344 535.644531 Z M 156.773438 561.773438 L 235.160156 561.773438 L 235.160156 457.257812 L 156.773438 457.257812 L 156.773438 561.773438 " fill-opacity="1" fill-rule="nonzero"/><path fill="#3857ff" d="M 287.417969 378.871094 L 313.546875 378.871094 L 313.546875 535.644531 L 287.417969 535.644531 Z M 261.289062 561.773438 L 339.675781 561.773438 L 339.675781 352.742188 L 261.289062 352.742188 L 261.289062 561.773438 " fill-opacity="1" fill-rule="nonzero"/></svg>