<svg xmlns="http://www.w3.org/2000/svg" xmlns:xlink="http://www.w3.org/1999/xlink" width="1080" zoomAndPan="magnify" viewBox="0 0 810 809.999993" height="1080" preserveAspectRatio="xMidYMid meet" version="1.0"><defs><clipPath id="4bdcc1159f"><path d="M 94.125 57 L 715.875 57 L 715.875 755.21875 L 94.125 755.21875 Z M 94.125 57 " clip-rule="nonzero"/></clipPath></defs><g clip-path="url(#4bdcc1159f)"><path fill="#3857ff" d="M 683.5 350.699219 L 190.855469 66.300781 C 170.71875 54.675781 146.675781 54.675781 126.53125 66.300781 C 126.367188 66.394531 126.21875 66.503906 126.054688 66.597656 C 125.765625 66.769531 125.480469 66.945312 125.195312 67.128906 C 105.878906 78.898438 94.371094 99.277344 94.371094 122 L 94.371094 690.800781 C 94.371094 714.054688 106.394531 734.878906 126.53125 746.5 C 136.605469 752.3125 147.648438 755.21875 158.695312 755.21875 C 169.742188 755.21875 180.792969 752.3125 190.855469 746.5 L 683.503906 462.101562 C 703.640625 450.476562 715.667969 429.65625 715.667969 406.402344 C 715.667969 383.144531 703.640625 362.324219 683.5 350.699219 Z M 135.769531 695.640625 C 135.46875 694.144531 135.289062 692.542969 135.289062 690.800781 L 135.289062 122 C 135.289062 118.941406 135.804688 116.273438 136.628906 113.953125 L 415.066406 404.347656 Z M 195.488281 116.214844 L 514.660156 300.472656 L 443.410156 374.785156 Z M 186.65625 701.6875 L 443.40625 433.902344 L 517.199219 510.867188 Z M 663.042969 426.667969 L 553.683594 489.800781 L 471.753906 404.347656 L 551.144531 321.539062 L 663.042969 386.132812 C 673.605469 392.230469 674.75 402.339844 674.75 406.402344 C 674.75 410.460938 673.605469 420.570312 663.042969 426.667969 Z M 663.042969 426.667969 " fill-opacity="1" fill-rule="nonzero"/></g></svg>