<svg xmlns="http://www.w3.org/2000/svg" xmlns:xlink="http://www.w3.org/1999/xlink" width="1080" zoomAndPan="magnify" viewBox="0 0 810 809.999993" height="1080" preserveAspectRatio="xMidYMid meet" version="1.0"><rect x="-81" width="972" fill="#ffffff" y="-80.999999" height="971.999992" fill-opacity="1"/><rect x="-81" width="972" fill="#ffffff" y="-80.999999" height="971.999992" fill-opacity="1"/><path fill="#3857ff" d="M 556.875 151.875 L 556.875 118.125 L 518.738281 105.46875 C 516.785156 99.234375 514.3125 93.214844 511.3125 87.414062 L 529.199219 51.46875 L 506.25 27.675781 L 469.460938 45.5625 C 463.660156 42.5625 457.640625 40.089844 451.40625 38.136719 L 438.75 0 L 405 0 L 392.34375 38.136719 C 386.109375 40.089844 380.089844 42.5625 374.289062 45.5625 L 338.34375 27.675781 L 314.550781 51.46875 L 332.4375 87.414062 C 329.4375 93.214844 326.964844 99.234375 325.011719 105.46875 L 286.875 118.125 L 286.875 151.875 L 325.011719 164.53125 C 326.964844 170.765625 329.4375 176.785156 332.4375 182.585938 L 314.550781 219.375 L 338.34375 243.167969 L 374.289062 225.28125 C 380.089844 228.28125 386.109375 230.753906 392.34375 232.707031 L 405 270 L 438.75 270 L 451.40625 231.863281 C 457.640625 229.910156 463.660156 227.4375 469.460938 224.4375 L 506.25 242.324219 L 529.199219 219.375 L 511.3125 182.585938 C 514.3125 176.785156 516.785156 170.765625 518.738281 164.53125 Z M 421.875 185.625 C 420.21875 185.625 418.5625 185.542969 416.914062 185.382812 C 415.261719 185.21875 413.625 184.976562 412 184.652344 C 410.371094 184.328125 408.765625 183.925781 407.179688 183.445312 C 405.59375 182.964844 404.035156 182.40625 402.5 181.769531 C 400.96875 181.136719 399.472656 180.429688 398.011719 179.648438 C 396.546875 178.867188 395.128906 178.015625 393.75 177.09375 C 392.371094 176.171875 391.039062 175.183594 389.757812 174.132812 C 388.476562 173.082031 387.25 171.96875 386.078125 170.796875 C 384.90625 169.625 383.792969 168.398438 382.742188 167.117188 C 381.691406 165.835938 380.703125 164.503906 379.78125 163.125 C 378.859375 161.746094 378.007812 160.328125 377.226562 158.863281 C 376.445312 157.402344 375.738281 155.90625 375.105469 154.375 C 374.46875 152.839844 373.910156 151.28125 373.429688 149.695312 C 372.949219 148.109375 372.546875 146.503906 372.222656 144.875 C 371.898438 143.25 371.65625 141.613281 371.492188 139.960938 C 371.332031 138.3125 371.25 136.65625 371.25 135 C 371.25 133.34375 371.332031 131.6875 371.492188 130.039062 C 371.65625 128.386719 371.898438 126.75 372.222656 125.125 C 372.546875 123.496094 372.949219 121.890625 373.429688 120.304688 C 373.910156 118.71875 374.46875 117.160156 375.105469 115.625 C 375.738281 114.09375 376.445312 112.597656 377.226562 111.136719 C 378.007812 109.671875 378.859375 108.253906 379.78125 106.875 C 380.703125 105.496094 381.691406 104.164062 382.742188 102.882812 C 383.792969 101.601562 384.90625 100.375 386.078125 99.203125 C 387.25 98.03125 388.476562 96.917969 389.757812 95.867188 C 391.039062 94.816406 392.371094 93.828125 393.75 92.90625 C 395.128906 91.984375 396.546875 91.132812 398.011719 90.351562 C 399.472656 89.570312 400.96875 88.863281 402.5 88.230469 C 404.035156 87.59375 405.59375 87.035156 407.179688 86.554688 C 408.765625 86.074219 410.371094 85.671875 412 85.347656 C 413.625 85.023438 415.261719 84.78125 416.914062 84.617188 C 418.5625 84.457031 420.21875 84.375 421.875 84.375 C 423.53125 84.375 425.1875 84.457031 426.835938 84.617188 C 428.488281 84.78125 430.125 85.023438 431.75 85.347656 C 433.378906 85.671875 434.984375 86.074219 436.570312 86.554688 C 438.15625 87.035156 439.714844 87.59375 441.25 88.230469 C 442.78125 88.863281 444.277344 89.570312 445.738281 90.351562 C 447.203125 91.132812 448.621094 91.984375 450 92.90625 C 451.378906 93.828125 452.710938 94.816406 453.992188 95.867188 C 455.273438 96.917969 456.5 98.03125 457.671875 99.203125 C 458.84375 100.375 459.957031 101.601562 461.007812 102.882812 C 462.058594 104.164062 463.046875 105.496094 463.96875 106.875 C 464.890625 108.253906 465.742188 109.671875 466.523438 111.136719 C 467.304688 112.597656 468.011719 114.09375 468.644531 115.625 C 469.28125 117.160156 469.839844 118.71875 470.320312 120.304688 C 470.800781 121.890625 471.203125 123.496094 471.527344 125.125 C 471.851562 126.75 472.09375 128.386719 472.257812 130.039062 C 472.417969 131.6875 472.5 133.34375 472.5 135 C 472.5 136.65625 472.417969 138.3125 472.257812 139.960938 C 472.09375 141.613281 471.851562 143.25 471.527344 144.875 C 471.203125 146.503906 470.800781 148.109375 470.320312 149.695312 C 469.839844 151.28125 469.28125 152.839844 468.644531 154.375 C 468.011719 155.90625 467.304688 157.402344 466.523438 158.863281 C 465.742188 160.328125 464.890625 161.746094 463.96875 163.125 C 463.046875 164.503906 462.058594 165.835938 461.007812 167.117188 C 459.957031 168.398438 458.84375 169.625 457.671875 170.796875 C 456.5 171.96875 455.273438 173.082031 453.992188 174.132812 C 452.710938 175.183594 451.378906 176.171875 450 177.09375 C 448.621094 178.015625 447.203125 178.867188 445.738281 179.648438 C 444.277344 180.429688 442.78125 181.136719 441.25 181.769531 C 439.714844 182.40625 438.15625 182.964844 436.570312 183.445312 C 434.984375 183.925781 433.378906 184.328125 431.75 184.652344 C 430.125 184.976562 428.488281 185.21875 426.835938 185.382812 C 425.1875 185.542969 423.53125 185.625 421.875 185.625 Z M 421.875 185.625 " fill-opacity="1" fill-rule="nonzero"/><path fill="#3857ff" d="M 810 354.375 L 810 320.625 L 771.863281 307.96875 C 769.910156 301.734375 767.4375 295.714844 764.4375 289.914062 L 782.324219 253.96875 L 759.375 230.175781 L 722.585938 248.0625 C 716.785156 245.0625 710.765625 242.589844 704.53125 240.636719 L 691.875 202.5 L 658.125 202.5 L 645.46875 240.636719 C 639.234375 242.589844 633.214844 245.0625 627.414062 248.0625 L 591.46875 230.175781 L 567.675781 253.96875 L 585.5625 289.914062 C 582.5625 295.714844 580.089844 301.734375 578.136719 307.96875 L 540 320.625 L 540 354.375 L 578.136719 367.03125 C 580.089844 373.265625 582.5625 379.285156 585.5625 385.085938 L 567.675781 421.875 L 591.46875 445.667969 L 627.414062 427.78125 C 633.214844 430.78125 639.234375 433.253906 645.46875 435.207031 L 658.125 472.5 L 691.875 472.5 L 704.53125 434.363281 C 710.765625 432.410156 716.785156 429.9375 722.585938 426.9375 L 759.375 444.824219 L 782.324219 421.875 L 764.4375 385.085938 C 767.4375 379.285156 769.910156 373.265625 771.863281 367.03125 Z M 675 388.125 C 673.34375 388.125 671.6875 388.042969 670.039062 387.882812 C 668.386719 387.71875 666.75 387.476562 665.125 387.152344 C 663.496094 386.828125 661.890625 386.425781 660.304688 385.945312 C 658.71875 385.464844 657.160156 384.90625 655.625 384.269531 C 654.09375 383.636719 652.597656 382.929688 651.136719 382.148438 C 649.671875 381.367188 648.253906 380.515625 646.875 379.59375 C 645.496094 378.671875 644.164062 377.683594 642.882812 376.632812 C 641.601562 375.582031 640.375 374.46875 639.203125 373.296875 C 638.03125 372.125 636.917969 370.898438 635.867188 369.617188 C 634.816406 368.335938 633.828125 367.003906 632.90625 365.625 C 631.984375 364.246094 631.132812 362.828125 630.351562 361.363281 C 629.570312 359.902344 628.863281 358.40625 628.226562 356.875 C 627.59375 355.339844 627.035156 353.78125 626.554688 352.195312 C 626.074219 350.609375 625.671875 349.003906 625.347656 347.375 C 625.023438 345.75 624.78125 344.113281 624.617188 342.460938 C 624.457031 340.8125 624.375 339.15625 624.375 337.5 C 624.375 335.84375 624.457031 334.1875 624.617188 332.539062 C 624.78125 330.886719 625.023438 329.25 625.347656 327.625 C 625.671875 325.996094 626.074219 324.390625 626.554688 322.804688 C 627.035156 321.21875 627.59375 319.660156 628.226562 318.125 C 628.863281 316.59375 629.570312 315.097656 630.351562 313.636719 C 631.132812 312.171875 631.984375 310.753906 632.90625 309.375 C 633.828125 307.996094 634.816406 306.664062 635.867188 305.382812 C 636.917969 304.101562 638.03125 302.875 639.203125 301.703125 C 640.375 300.53125 641.601562 299.417969 642.882812 298.367188 C 644.164062 297.316406 645.496094 296.328125 646.875 295.40625 C 648.253906 294.484375 649.671875 293.632812 651.136719 292.851562 C 652.597656 292.070312 654.09375 291.363281 655.625 290.730469 C 657.160156 290.09375 658.71875 289.535156 660.304688 289.054688 C 661.890625 288.574219 663.496094 288.171875 665.125 287.847656 C 666.75 287.523438 668.386719 287.28125 670.039062 287.117188 C 671.6875 286.957031 673.34375 286.875 675 286.875 C 676.65625 286.875 678.3125 286.957031 679.960938 287.117188 C 681.613281 287.28125 683.25 287.523438 684.875 287.847656 C 686.503906 288.171875 688.109375 288.574219 689.695312 289.054688 C 691.28125 289.535156 692.839844 290.09375 694.375 290.730469 C 695.90625 291.363281 697.402344 292.070312 698.863281 292.851562 C 700.328125 293.632812 701.746094 294.484375 703.125 295.40625 C 704.503906 296.328125 705.835938 297.316406 707.117188 298.367188 C 708.398438 299.417969 709.625 300.53125 710.796875 301.703125 C 711.96875 302.875 713.082031 304.101562 714.132812 305.382812 C 715.183594 306.664062 716.171875 307.996094 717.09375 309.375 C 718.015625 310.753906 718.867188 312.171875 719.648438 313.636719 C 720.429688 315.097656 721.136719 316.59375 721.769531 318.125 C 722.40625 319.660156 722.964844 321.21875 723.445312 322.804688 C 723.925781 324.390625 724.328125 325.996094 724.652344 327.625 C 724.976562 329.25 725.21875 330.886719 725.382812 332.539062 C 725.542969 334.1875 725.625 335.84375 725.625 337.5 C 725.625 339.15625 725.542969 340.8125 725.382812 342.460938 C 725.21875 344.113281 724.976562 345.75 724.652344 347.375 C 724.328125 349.003906 723.925781 350.609375 723.445312 352.195312 C 722.964844 353.78125 722.40625 355.339844 721.769531 356.875 C 721.136719 358.40625 720.429688 359.902344 719.648438 361.363281 C 718.867188 362.828125 718.015625 364.246094 717.09375 365.625 C 716.171875 367.003906 715.183594 368.335938 714.132812 369.617188 C 713.082031 370.898438 711.96875 372.125 710.796875 373.296875 C 709.625 374.46875 708.398438 375.582031 707.117188 376.632812 C 705.835938 377.683594 704.503906 378.671875 703.125 379.59375 C 701.746094 380.515625 700.328125 381.367188 698.863281 382.148438 C 697.402344 382.929688 695.90625 383.636719 694.375 384.269531 C 692.839844 384.90625 691.28125 385.464844 689.695312 385.945312 C 688.109375 386.425781 686.503906 386.828125 684.875 387.152344 C 683.25 387.476562 681.613281 387.71875 679.960938 387.882812 C 678.3125 388.042969 676.65625 388.125 675 388.125 Z M 675 388.125 " fill-opacity="1" fill-rule="nonzero"/><path fill="#3857ff" d="M 528.355469 492.414062 L 464.90625 471.320312 C 462.207031 463.894531 459.507812 457.144531 456.46875 450.730469 L 486.335938 390.824219 C 486.734375 390.035156 487.070312 389.21875 487.335938 388.375 C 487.605469 387.53125 487.808594 386.671875 487.941406 385.796875 C 488.074219 384.921875 488.140625 384.039062 488.136719 383.15625 C 488.132812 382.269531 488.058594 381.390625 487.914062 380.515625 C 487.769531 379.644531 487.558594 378.785156 487.28125 377.945312 C 487.003906 377.105469 486.664062 376.292969 486.257812 375.503906 C 485.851562 374.71875 485.386719 373.96875 484.859375 373.253906 C 484.335938 372.539062 483.761719 371.871094 483.132812 371.25 L 438.75 326.867188 C 438.128906 326.25 437.464844 325.679688 436.757812 325.164062 C 436.050781 324.648438 435.304688 324.1875 434.527344 323.785156 C 433.746094 323.386719 432.941406 323.046875 432.109375 322.773438 C 431.277344 322.496094 430.425781 322.289062 429.5625 322.144531 C 428.699219 322.003906 427.828125 321.929688 426.949219 321.921875 C 426.074219 321.914062 425.203125 321.972656 424.335938 322.101562 C 423.46875 322.230469 422.613281 322.425781 421.777344 322.6875 C 420.941406 322.949219 420.128906 323.273438 419.34375 323.664062 L 359.269531 354.375 C 352.855469 351.335938 346.105469 348.636719 338.679688 345.9375 L 317.585938 282.488281 C 317.316406 281.652344 316.980469 280.847656 316.582031 280.0625 C 316.183594 279.28125 315.730469 278.535156 315.214844 277.824219 C 314.699219 277.113281 314.136719 276.449219 313.515625 275.828125 C 312.898438 275.203125 312.234375 274.632812 311.527344 274.113281 C 310.820312 273.59375 310.078125 273.132812 309.300781 272.730469 C 308.519531 272.328125 307.714844 271.988281 306.882812 271.710938 C 306.050781 271.433594 305.203125 271.222656 304.339844 271.074219 C 303.472656 270.929688 302.601562 270.851562 301.726562 270.84375 L 238.273438 270.84375 C 237.398438 270.851562 236.527344 270.929688 235.660156 271.074219 C 234.796875 271.222656 233.949219 271.433594 233.117188 271.710938 C 232.285156 271.988281 231.480469 272.328125 230.699219 272.730469 C 229.921875 273.132812 229.179688 273.59375 228.472656 274.113281 C 227.765625 274.632812 227.101562 275.203125 226.484375 275.828125 C 225.863281 276.449219 225.300781 277.113281 224.785156 277.824219 C 224.269531 278.535156 223.816406 279.28125 223.417969 280.0625 C 223.019531 280.847656 222.683594 281.652344 222.414062 282.488281 L 201.320312 345.9375 C 193.894531 348.636719 187.144531 351.335938 180.730469 354.375 L 120.824219 323.664062 C 120.035156 323.265625 119.21875 322.929688 118.375 322.664062 C 117.53125 322.394531 116.671875 322.191406 115.796875 322.058594 C 114.921875 321.925781 114.039062 321.859375 113.15625 321.863281 C 112.269531 321.867188 111.390625 321.941406 110.515625 322.085938 C 109.644531 322.230469 108.785156 322.441406 107.945312 322.71875 C 107.105469 322.996094 106.292969 323.335938 105.503906 323.742188 C 104.71875 324.148438 103.96875 324.613281 103.253906 325.140625 C 102.539062 325.664062 101.871094 326.238281 101.25 326.867188 L 56.867188 371.25 C 56.25 371.871094 55.679688 372.535156 55.164062 373.242188 C 54.648438 373.949219 54.1875 374.695312 53.785156 375.472656 C 53.386719 376.253906 53.046875 377.058594 52.773438 377.890625 C 52.496094 378.722656 52.289062 379.574219 52.144531 380.4375 C 52.003906 381.300781 51.929688 382.171875 51.921875 383.050781 C 51.914062 383.925781 51.972656 384.796875 52.101562 385.664062 C 52.230469 386.53125 52.425781 387.386719 52.6875 388.222656 C 52.949219 389.058594 53.273438 389.871094 53.664062 390.65625 L 84.375 450.730469 C 81.335938 457.144531 78.636719 463.894531 75.9375 471.320312 L 11.644531 492.414062 C 10.808594 492.683594 10.003906 493.019531 9.21875 493.417969 C 8.4375 493.816406 7.691406 494.269531 6.980469 494.785156 C 6.269531 495.300781 5.605469 495.867188 4.984375 496.484375 C 4.359375 497.101562 3.789062 497.765625 3.269531 498.472656 C 2.75 499.179688 2.289062 499.921875 1.886719 500.699219 C 1.484375 501.480469 1.144531 502.285156 0.867188 503.117188 C 0.589844 503.949219 0.378906 504.796875 0.230469 505.660156 C 0.0859375 506.527344 0.0078125 507.398438 0 508.273438 L 0 571.726562 C 0.0078125 572.601562 0.0859375 573.472656 0.230469 574.339844 C 0.378906 575.203125 0.589844 576.050781 0.867188 576.882812 C 1.144531 577.714844 1.484375 578.519531 1.886719 579.300781 C 2.289062 580.078125 2.75 580.820312 3.269531 581.527344 C 3.789062 582.234375 4.359375 582.898438 4.984375 583.515625 C 5.605469 584.132812 6.269531 584.699219 6.980469 585.214844 C 7.691406 585.730469 8.4375 586.183594 9.21875 586.582031 C 10.003906 586.980469 10.808594 587.316406 11.644531 587.585938 L 75.09375 608.679688 C 77.792969 616.105469 80.492188 622.855469 83.53125 629.269531 L 53.664062 689.175781 C 53.265625 689.964844 52.929688 690.78125 52.664062 691.625 C 52.394531 692.46875 52.191406 693.328125 52.058594 694.203125 C 51.925781 695.078125 51.859375 695.960938 51.863281 696.84375 C 51.867188 697.730469 51.941406 698.609375 52.085938 699.484375 C 52.230469 700.355469 52.441406 701.214844 52.71875 702.054688 C 52.996094 702.894531 53.335938 703.707031 53.742188 704.496094 C 54.148438 705.28125 54.613281 706.03125 55.140625 706.746094 C 55.664062 707.460938 56.238281 708.128906 56.867188 708.75 L 101.25 753.132812 C 101.871094 753.75 102.535156 754.320312 103.242188 754.835938 C 103.949219 755.351562 104.695312 755.8125 105.472656 756.214844 C 106.253906 756.613281 107.058594 756.953125 107.890625 757.226562 C 108.722656 757.503906 109.574219 757.710938 110.4375 757.855469 C 111.300781 757.996094 112.171875 758.070312 113.050781 758.078125 C 113.925781 758.085938 114.796875 758.027344 115.664062 757.898438 C 116.53125 757.769531 117.386719 757.574219 118.222656 757.3125 C 119.058594 757.050781 119.871094 756.726562 120.65625 756.335938 L 180.5625 726.46875 C 186.976562 729.507812 193.726562 732.207031 201.148438 734.90625 L 222.242188 798.355469 C 222.515625 799.191406 222.851562 799.996094 223.25 800.78125 C 223.644531 801.5625 224.101562 802.308594 224.617188 803.019531 C 225.128906 803.730469 225.695312 804.394531 226.316406 805.015625 C 226.933594 805.640625 227.59375 806.210938 228.300781 806.730469 C 229.007812 807.25 229.753906 807.710938 230.53125 808.113281 C 231.308594 808.515625 232.117188 808.855469 232.949219 809.132812 C 233.78125 809.410156 234.628906 809.621094 235.492188 809.769531 C 236.359375 809.914062 237.230469 809.992188 238.105469 810 L 301.554688 810 C 302.433594 809.992188 303.304688 809.914062 304.167969 809.769531 C 305.035156 809.621094 305.882812 809.410156 306.714844 809.132812 C 307.546875 808.855469 308.351562 808.515625 309.132812 808.113281 C 309.910156 807.710938 310.652344 807.25 311.359375 806.730469 C 312.066406 806.210938 312.730469 805.640625 313.347656 805.015625 C 313.964844 804.394531 314.53125 803.730469 315.046875 803.019531 C 315.558594 802.308594 316.015625 801.5625 316.414062 800.78125 C 316.8125 799.996094 317.148438 799.191406 317.417969 798.355469 L 338.511719 734.90625 C 345.9375 732.207031 352.6875 729.507812 359.101562 726.46875 L 419.007812 756.335938 C 419.800781 756.746094 420.625 757.085938 421.476562 757.363281 C 422.324219 757.640625 423.191406 757.847656 424.074219 757.988281 C 424.957031 758.125 425.847656 758.195312 426.738281 758.191406 C 427.632812 758.191406 428.523438 758.117188 429.40625 757.976562 C 430.285156 757.832031 431.152344 757.621094 432 757.339844 C 432.851562 757.058594 433.671875 756.710938 434.464844 756.300781 C 435.257812 755.890625 436.015625 755.417969 436.734375 754.886719 C 437.453125 754.355469 438.125 753.769531 438.75 753.132812 L 483.132812 708.75 C 483.75 708.128906 484.320312 707.464844 484.835938 706.757812 C 485.351562 706.050781 485.8125 705.304688 486.214844 704.527344 C 486.613281 703.746094 486.953125 702.941406 487.226562 702.109375 C 487.503906 701.277344 487.710938 700.425781 487.855469 699.5625 C 487.996094 698.695312 488.070312 697.828125 488.078125 696.949219 C 488.085938 696.074219 488.027344 695.199219 487.898438 694.332031 C 487.769531 693.46875 487.574219 692.613281 487.3125 691.777344 C 487.050781 690.941406 486.726562 690.128906 486.335938 689.34375 L 456.46875 629.4375 C 459.507812 623.023438 462.207031 616.273438 464.90625 608.851562 L 528.355469 587.757812 C 529.191406 587.484375 529.996094 587.148438 530.78125 586.75 C 531.5625 586.355469 532.308594 585.898438 533.019531 585.382812 C 533.730469 584.871094 534.394531 584.304688 535.015625 583.683594 C 535.640625 583.066406 536.210938 582.40625 536.730469 581.699219 C 537.25 580.992188 537.710938 580.246094 538.113281 579.46875 C 538.515625 578.691406 538.855469 577.882812 539.132812 577.050781 C 539.410156 576.21875 539.621094 575.371094 539.769531 574.507812 C 539.914062 573.640625 539.992188 572.769531 540 571.894531 L 540 508.273438 C 539.992188 507.398438 539.914062 506.527344 539.769531 505.660156 C 539.621094 504.796875 539.410156 503.949219 539.132812 503.117188 C 538.855469 502.285156 538.515625 501.480469 538.113281 500.699219 C 537.710938 499.921875 537.25 499.179688 536.730469 498.472656 C 536.210938 497.765625 535.640625 497.101562 535.015625 496.484375 C 534.394531 495.867188 533.730469 495.300781 533.019531 494.785156 C 532.308594 494.269531 531.5625 493.816406 530.78125 493.417969 C 529.996094 493.019531 529.191406 492.683594 528.355469 492.414062 Z M 506.25 559.914062 C 442.800781 581.007812 438.75 579.824219 435.542969 590.625 C 418.667969 644.117188 409.050781 610.199219 450.730469 693.730469 L 423.226562 721.238281 C 363.320312 691.367188 361.460938 687.488281 351.335938 693.226562 C 301.554688 719.550781 319.949219 684.617188 289.40625 777.601562 L 250.59375 777.601562 C 229.5 714.148438 230.679688 710.101562 219.882812 706.894531 C 166.386719 690.019531 200.304688 680.398438 116.773438 722.082031 L 89.269531 693.226562 C 119.136719 633.320312 123.019531 631.460938 117.28125 621.335938 C 90.957031 571.554688 125.886719 590.625 33.75 559.40625 L 33.75 520.59375 C 97.199219 499.5 101.25 500.679688 104.457031 489.375 C 121.332031 435.882812 130.949219 469.800781 89.269531 386.269531 L 116.773438 358.761719 C 176.851562 388.800781 178.539062 392.511719 188.664062 386.773438 C 239.289062 360.449219 220.050781 395.382812 250.59375 303.242188 L 289.40625 303.242188 C 310.5 366.695312 309.320312 370.742188 320.117188 373.949219 C 373.613281 390.824219 339.695312 400.445312 423.226562 358.761719 L 450.730469 386.269531 C 420.863281 446.175781 416.980469 448.03125 422.71875 458.15625 C 449.042969 507.9375 414.113281 489.542969 506.25 520.085938 Z M 506.25 559.914062 " fill-opacity="1" fill-rule="nonzero"/><path fill="#3857ff" d="M 237.09375 585.226562 L 270.84375 483.976562 C 271.019531 483.449219 271.222656 482.933594 271.449219 482.429688 C 271.675781 481.925781 271.929688 481.433594 272.207031 480.953125 C 272.480469 480.472656 272.78125 480.003906 273.101562 479.554688 C 273.421875 479.101562 273.765625 478.667969 274.128906 478.25 C 274.496094 477.832031 274.878906 477.433594 275.28125 477.054688 C 275.6875 476.675781 276.105469 476.316406 276.546875 475.980469 C 276.984375 475.640625 277.4375 475.324219 277.910156 475.03125 C 278.378906 474.738281 278.859375 474.46875 279.359375 474.222656 C 279.855469 473.972656 280.359375 473.753906 280.878906 473.558594 C 281.398438 473.359375 281.921875 473.191406 282.457031 473.046875 C 282.992188 472.902344 283.535156 472.78125 284.082031 472.691406 C 284.625 472.597656 285.175781 472.535156 285.730469 472.496094 C 286.28125 472.460938 286.835938 472.449219 287.390625 472.464844 C 287.941406 472.484375 288.496094 472.527344 289.042969 472.597656 C 289.59375 472.667969 290.136719 472.765625 290.675781 472.890625 C 291.21875 473.015625 291.75 473.167969 292.273438 473.34375 C 292.800781 473.519531 293.316406 473.722656 293.820312 473.949219 C 294.324219 474.175781 294.816406 474.429688 295.296875 474.707031 C 295.777344 474.980469 296.246094 475.28125 296.695312 475.601562 C 297.148438 475.921875 297.582031 476.265625 298 476.628906 C 298.417969 476.996094 298.816406 477.378906 299.195312 477.78125 C 299.574219 478.1875 299.933594 478.605469 300.269531 479.046875 C 300.609375 479.484375 300.925781 479.9375 301.21875 480.410156 C 301.511719 480.878906 301.78125 481.359375 302.027344 481.859375 C 302.273438 482.355469 302.496094 482.859375 302.691406 483.378906 C 302.890625 483.898438 303.058594 484.421875 303.203125 484.957031 C 303.347656 485.492188 303.46875 486.035156 303.558594 486.582031 C 303.648438 487.125 303.714844 487.675781 303.753906 488.230469 C 303.789062 488.78125 303.800781 489.335938 303.785156 489.890625 C 303.765625 490.441406 303.722656 490.996094 303.652344 491.542969 C 303.582031 492.09375 303.484375 492.636719 303.359375 493.175781 C 303.234375 493.71875 303.082031 494.25 302.90625 494.773438 L 269.15625 596.023438 C 268.980469 596.550781 268.777344 597.0625 268.546875 597.570312 C 268.320312 598.074219 268.070312 598.566406 267.792969 599.046875 C 267.515625 599.527344 267.21875 599.992188 266.894531 600.441406 C 266.574219 600.890625 266.230469 601.324219 265.867188 601.742188 C 265.503906 602.160156 265.117188 602.558594 264.714844 602.9375 C 264.3125 603.316406 263.890625 603.675781 263.453125 604.011719 C 263.011719 604.351562 262.558594 604.664062 262.089844 604.957031 C 261.621094 605.25 261.136719 605.519531 260.640625 605.765625 C 260.144531 606.011719 259.636719 606.234375 259.121094 606.429688 C 258.601562 606.625 258.074219 606.796875 257.539062 606.941406 C 257.007812 607.085938 256.464844 607.203125 255.917969 607.292969 C 255.375 607.386719 254.824219 607.449219 254.273438 607.488281 C 253.71875 607.523438 253.167969 607.535156 252.613281 607.519531 C 252.058594 607.5 251.507812 607.457031 250.960938 607.386719 C 250.410156 607.316406 249.867188 607.21875 249.328125 607.09375 C 248.785156 606.96875 248.253906 606.816406 247.730469 606.640625 C 247.207031 606.464844 246.691406 606.261719 246.1875 606.035156 C 245.679688 605.808594 245.1875 605.554688 244.707031 605.28125 C 244.226562 605.003906 243.761719 604.707031 243.3125 604.382812 C 242.859375 604.0625 242.425781 603.71875 242.007812 603.355469 C 241.59375 602.992188 241.195312 602.609375 240.8125 602.207031 C 240.433594 601.800781 240.074219 601.382812 239.738281 600.945312 C 239.398438 600.503906 239.082031 600.050781 238.789062 599.582031 C 238.496094 599.113281 238.226562 598.628906 237.980469 598.132812 C 237.734375 597.636719 237.511719 597.132812 237.316406 596.613281 C 237.117188 596.097656 236.949219 595.570312 236.804688 595.035156 C 236.660156 594.5 236.539062 593.960938 236.449219 593.414062 C 236.355469 592.871094 236.292969 592.320312 236.253906 591.769531 C 236.214844 591.214844 236.203125 590.664062 236.222656 590.109375 C 236.238281 589.554688 236.28125 589.003906 236.351562 588.453125 C 236.421875 587.90625 236.519531 587.363281 236.644531 586.820312 C 236.765625 586.28125 236.917969 585.75 237.09375 585.226562 Z M 237.09375 585.226562 " fill-opacity="1" fill-rule="nonzero"/><path fill="#3857ff" d="M 337.5 590.625 C 336.667969 590.628906 335.835938 590.574219 335.011719 590.457031 C 334.1875 590.335938 333.375 590.160156 332.578125 589.921875 C 331.777344 589.683594 331 589.386719 330.246094 589.035156 C 329.492188 588.679688 328.769531 588.273438 328.074219 587.8125 C 327.378906 587.351562 326.722656 586.84375 326.101562 586.285156 C 325.484375 585.726562 324.910156 585.125 324.378906 584.484375 C 323.851562 583.839844 323.371094 583.160156 322.941406 582.445312 C 322.511719 581.734375 322.136719 580.992188 321.816406 580.222656 C 321.496094 579.453125 321.234375 578.664062 321.035156 577.855469 C 320.832031 577.046875 320.6875 576.226562 320.609375 575.398438 C 320.527344 574.566406 320.507812 573.738281 320.546875 572.90625 C 320.589844 572.074219 320.691406 571.25 320.855469 570.429688 C 321.019531 569.613281 321.242188 568.8125 321.527344 568.027344 C 321.808594 567.246094 322.148438 566.488281 322.542969 565.753906 C 322.9375 565.019531 323.382812 564.316406 323.882812 563.652344 C 324.382812 562.984375 324.925781 562.355469 325.519531 561.769531 L 347.457031 540 L 325.519531 518.230469 C 325.125 517.839844 324.753906 517.429688 324.402344 517 C 324.050781 516.570312 323.722656 516.125 323.414062 515.664062 C 323.105469 515.203125 322.820312 514.726562 322.5625 514.238281 C 322.300781 513.746094 322.0625 513.246094 321.851562 512.734375 C 321.640625 512.222656 321.453125 511.699219 321.292969 511.167969 C 321.132812 510.636719 320.996094 510.101562 320.890625 509.558594 C 320.78125 509.011719 320.699219 508.464844 320.644531 507.914062 C 320.59375 507.359375 320.566406 506.808594 320.566406 506.253906 C 320.566406 505.699219 320.59375 505.144531 320.648438 504.59375 C 320.703125 504.039062 320.785156 503.492188 320.890625 502.949219 C 321 502.40625 321.136719 501.867188 321.296875 501.335938 C 321.457031 500.804688 321.644531 500.285156 321.855469 499.773438 C 322.070312 499.257812 322.304688 498.757812 322.566406 498.269531 C 322.828125 497.78125 323.113281 497.304688 323.421875 496.84375 C 323.730469 496.382812 324.058594 495.9375 324.410156 495.507812 C 324.765625 495.082031 325.136719 494.671875 325.527344 494.277344 C 325.921875 493.886719 326.332031 493.515625 326.757812 493.160156 C 327.1875 492.808594 327.632812 492.480469 328.09375 492.171875 C 328.554688 491.863281 329.03125 491.578125 329.519531 491.316406 C 330.007812 491.054688 330.507812 490.820312 331.023438 490.605469 C 331.535156 490.394531 332.054688 490.207031 332.585938 490.046875 C 333.117188 489.886719 333.65625 489.75 334.199219 489.640625 C 334.742188 489.535156 335.289062 489.453125 335.84375 489.398438 C 336.394531 489.34375 336.949219 489.316406 337.503906 489.316406 C 338.058594 489.316406 338.609375 489.34375 339.164062 489.394531 C 339.714844 489.449219 340.261719 489.53125 340.808594 489.640625 C 341.351562 489.746094 341.886719 489.882812 342.417969 490.042969 C 342.949219 490.203125 343.472656 490.390625 343.984375 490.601562 C 344.496094 490.8125 344.996094 491.050781 345.488281 491.3125 C 345.976562 491.570312 346.453125 491.855469 346.914062 492.164062 C 347.375 492.472656 347.820312 492.800781 348.25 493.152344 C 348.679688 493.503906 349.089844 493.875 349.480469 494.269531 L 383.230469 528.019531 C 383.625 528.410156 384 528.820312 384.355469 529.246094 C 384.707031 529.675781 385.039062 530.121094 385.351562 530.582031 C 385.660156 531.042969 385.945312 531.519531 386.210938 532.007812 C 386.472656 532.496094 386.710938 532.996094 386.925781 533.511719 C 387.136719 534.023438 387.328125 534.546875 387.488281 535.078125 C 387.652344 535.609375 387.785156 536.144531 387.894531 536.691406 C 388.003906 537.234375 388.085938 537.785156 388.140625 538.335938 C 388.195312 538.890625 388.222656 539.445312 388.222656 540 C 388.222656 540.554688 388.195312 541.109375 388.140625 541.664062 C 388.085938 542.214844 388.003906 542.765625 387.894531 543.308594 C 387.785156 543.855469 387.652344 544.390625 387.488281 544.921875 C 387.328125 545.453125 387.136719 545.976562 386.925781 546.488281 C 386.710938 547.003906 386.472656 547.503906 386.210938 547.992188 C 385.945312 548.480469 385.660156 548.957031 385.351562 549.417969 C 385.039062 549.878906 384.707031 550.324219 384.355469 550.753906 C 384 551.179688 383.625 551.589844 383.230469 551.980469 C 346.445312 588.769531 346.613281 590.625 337.5 590.625 Z M 337.5 590.625 " fill-opacity="1" fill-rule="nonzero"/><path fill="#3857ff" d="M 202.5 590.625 C 193.386719 590.625 192.882812 588.09375 156.769531 551.980469 C 156.375 551.589844 156 551.179688 155.644531 550.753906 C 155.292969 550.324219 154.960938 549.878906 154.648438 549.417969 C 154.339844 548.957031 154.054688 548.480469 153.789062 547.992188 C 153.527344 547.503906 153.289062 547.003906 153.074219 546.488281 C 152.859375 545.976562 152.671875 545.453125 152.511719 544.921875 C 152.347656 544.390625 152.214844 543.855469 152.105469 543.308594 C 151.996094 542.765625 151.914062 542.214844 151.859375 541.664062 C 151.804688 541.109375 151.777344 540.554688 151.777344 540 C 151.777344 539.445312 151.804688 538.890625 151.859375 538.335938 C 151.914062 537.785156 151.996094 537.234375 152.105469 536.691406 C 152.214844 536.144531 152.347656 535.609375 152.511719 535.078125 C 152.671875 534.546875 152.859375 534.023438 153.074219 533.511719 C 153.289062 532.996094 153.527344 532.496094 153.789062 532.007812 C 154.054688 531.519531 154.339844 531.042969 154.648438 530.582031 C 154.960938 530.121094 155.292969 529.675781 155.644531 529.246094 C 156 528.820312 156.375 528.410156 156.769531 528.019531 L 190.519531 494.269531 C 190.910156 493.875 191.320312 493.503906 191.75 493.152344 C 192.179688 492.800781 192.625 492.46875 193.085938 492.160156 C 193.546875 491.851562 194.023438 491.566406 194.511719 491.308594 C 195.003906 491.046875 195.503906 490.808594 196.015625 490.597656 C 196.527344 490.382812 197.050781 490.195312 197.582031 490.035156 C 198.113281 489.875 198.648438 489.738281 199.195312 489.632812 C 199.738281 489.523438 200.285156 489.441406 200.839844 489.386719 C 201.390625 489.332031 201.945312 489.304688 202.5 489.304688 C 203.054688 489.304688 203.609375 489.332031 204.160156 489.386719 C 204.714844 489.441406 205.261719 489.523438 205.804688 489.632812 C 206.351562 489.738281 206.886719 489.875 207.417969 490.035156 C 207.949219 490.195312 208.472656 490.382812 208.984375 490.597656 C 209.496094 490.808594 209.996094 491.046875 210.488281 491.308594 C 210.976562 491.566406 211.453125 491.851562 211.914062 492.160156 C 212.375 492.46875 212.820312 492.800781 213.25 493.152344 C 213.679688 493.503906 214.089844 493.875 214.480469 494.269531 C 214.875 494.660156 215.246094 495.070312 215.597656 495.5 C 215.949219 495.929688 216.28125 496.375 216.589844 496.835938 C 216.898438 497.296875 217.183594 497.773438 217.441406 498.261719 C 217.703125 498.753906 217.941406 499.253906 218.152344 499.765625 C 218.367188 500.277344 218.554688 500.800781 218.714844 501.332031 C 218.875 501.863281 219.011719 502.398438 219.117188 502.945312 C 219.226562 503.488281 219.308594 504.035156 219.363281 504.589844 C 219.417969 505.140625 219.445312 505.695312 219.445312 506.25 C 219.445312 506.804688 219.417969 507.359375 219.363281 507.910156 C 219.308594 508.464844 219.226562 509.011719 219.117188 509.554688 C 219.011719 510.101562 218.875 510.636719 218.714844 511.167969 C 218.554688 511.699219 218.367188 512.222656 218.152344 512.734375 C 217.941406 513.246094 217.703125 513.746094 217.441406 514.238281 C 217.183594 514.726562 216.898438 515.203125 216.589844 515.664062 C 216.28125 516.125 215.949219 516.570312 215.597656 517 C 215.246094 517.429688 214.875 517.839844 214.480469 518.230469 L 192.542969 540 L 214.480469 561.769531 C 215.074219 562.355469 215.617188 562.984375 216.117188 563.652344 C 216.617188 564.316406 217.0625 565.019531 217.457031 565.753906 C 217.851562 566.488281 218.191406 567.246094 218.472656 568.03125 C 218.757812 568.8125 218.980469 569.613281 219.144531 570.429688 C 219.308594 571.25 219.410156 572.074219 219.453125 572.90625 C 219.492188 573.738281 219.472656 574.566406 219.390625 575.398438 C 219.3125 576.226562 219.167969 577.046875 218.964844 577.855469 C 218.765625 578.664062 218.503906 579.453125 218.183594 580.222656 C 217.863281 580.992188 217.488281 581.734375 217.058594 582.445312 C 216.628906 583.160156 216.148438 583.839844 215.621094 584.484375 C 215.089844 585.125 214.515625 585.726562 213.898438 586.285156 C 213.277344 586.84375 212.621094 587.351562 211.925781 587.8125 C 211.230469 588.273438 210.507812 588.679688 209.753906 589.035156 C 208.996094 589.386719 208.222656 589.683594 207.421875 589.921875 C 206.625 590.160156 205.8125 590.335938 204.988281 590.457031 C 204.164062 590.574219 203.332031 590.628906 202.5 590.625 Z M 202.5 590.625 " fill-opacity="1" fill-rule="nonzero"/></svg>