<svg xmlns="http://www.w3.org/2000/svg" xmlns:xlink="http://www.w3.org/1999/xlink" width="1080" zoomAndPan="magnify" viewBox="0 0 810 809.999993" height="1080" preserveAspectRatio="xMidYMid meet" version="1.0"><path fill="#3857ff" d="M 708.332031 448.035156 C 709.8125 436.816406 730.472656 420.21875 731.144531 408.921875 C 732.34375 388.378906 704.585938 348.183594 685.519531 340.464844 C 655.242188 328.214844 501.371094 333.949219 501.371094 333.949219 C 486.335938 307.652344 528.167969 242.730469 539.671875 214.699219 C 556.5625 173.621094 553.714844 119.113281 532.351562 91.113281 C 506.265625 56.90625 458.375 54.625 457.390625 69.933594 C 450.253906 180.960938 429.003906 211.761719 400.550781 233.714844 C 383.460938 246.902344 368.511719 258.441406 360.632812 278.539062 C 312.136719 402.054688 276.199219 430.648438 255.660156 430.648438 L 241.96875 430.648438 L 241.96875 711.390625 L 385.710938 738.128906 C 385.710938 738.128906 564.167969 755.023438 620.359375 738.128906 C 638.039062 732.828125 668.554688 706.273438 675.761719 689.230469 C 679.882812 679.453125 674.167969 656.300781 679.035156 646.859375 C 686.21875 632.867188 716.546875 615.347656 716.519531 596.335938 C 716.492188 582.785156 700.699219 559.328125 701.847656 545.808594 C 702.992188 532.277344 731.207031 513.730469 731.179688 500.179688 C 731.117188 485.960938 706.460938 462.140625 708.332031 448.035156 Z M 708.332031 448.035156 " fill-opacity="1" fill-rule="nonzero"/><path fill="#3857ff" d="M 214.589844 704.542969 C 214.589844 719.667969 202.324219 731.933594 187.203125 731.933594 L 105.042969 731.933594 C 89.917969 731.933594 77.65625 719.667969 77.65625 704.542969 L 77.65625 444.34375 C 77.65625 429.21875 89.917969 416.953125 105.042969 416.953125 L 187.203125 416.953125 C 202.324219 416.953125 214.589844 429.21875 214.589844 444.34375 Z M 214.589844 704.542969 " fill-opacity="1" fill-rule="nonzero"/></svg>