<svg xmlns="http://www.w3.org/2000/svg" xmlns:xlink="http://www.w3.org/1999/xlink" width="1080" zoomAndPan="magnify" viewBox="0 0 810 809.999993" height="1080" preserveAspectRatio="xMidYMid meet" version="1.0"><defs><clipPath id="1681973719"><path d="M 684 204 L 809.808594 204 L 809.808594 713 L 684 713 Z M 684 204 " clip-rule="nonzero"/></clipPath><clipPath id="7376070fe4"><path d="M 114 60.710938 L 695.785156 60.710938 L 695.785156 749.375 L 114 749.375 Z M 114 60.710938 " clip-rule="nonzero"/></clipPath></defs><rect x="-81" width="972" fill="#ffffff" y="-80.999999" height="971.999992" fill-opacity="1"/><rect x="-81" width="972" fill="#ffffff" y="-80.999999" height="971.999992" fill-opacity="1"/><path fill="#3857ff" d="M 605.453125 163.414062 C 610.351562 166.746094 615.144531 170.210938 619.839844 173.777344 C 630.09375 181.523438 644.503906 180.1875 652.890625 170.464844 L 652.890625 170.441406 C 662.070312 159.820312 660.195312 143.738281 648.992188 135.25 C 643.660156 131.199219 638.195312 127.273438 632.660156 123.503906 C 621.042969 115.601562 605.222656 118.960938 598.070312 131.042969 L 598.042969 131.070312 C 591.53125 142.097656 594.863281 156.179688 605.453125 163.414062 " fill-opacity="1" fill-rule="nonzero"/><path fill="#3857ff" d="M 48.28125 458.40625 C 48.28125 380.507812 73.769531 304.972656 120.433594 243.285156 C 128.179688 233.050781 126.84375 218.636719 117.125 210.25 C 106.664062 201.195312 90.589844 202.707031 82.230469 213.738281 C 29.023438 283.863281 0 369.789062 0 458.40625 C 0 547 29.023438 632.949219 82.230469 703.050781 C 90.589844 714.105469 106.664062 715.59375 117.125 706.539062 C 126.84375 698.152344 128.179688 683.738281 120.433594 673.503906 C 73.769531 611.839844 48.28125 536.304688 48.28125 458.40625 " fill-opacity="1" fill-rule="nonzero"/><g clip-path="url(#1681973719)"><path fill="#3857ff" d="M 727.632812 213.8125 C 719.273438 202.785156 703.195312 201.273438 692.710938 210.324219 C 683.015625 218.714844 681.683594 233.101562 689.402344 243.363281 C 736.042969 305.050781 761.503906 380.5625 761.503906 458.40625 C 761.503906 536.226562 736.042969 611.738281 689.402344 673.453125 C 681.683594 683.683594 683.015625 698.101562 692.710938 706.460938 C 703.195312 715.515625 719.273438 714.003906 727.632812 702.972656 C 780.757812 632.824219 809.785156 546.921875 809.785156 458.40625 C 809.785156 369.863281 780.757812 283.964844 727.632812 213.8125 " fill-opacity="1" fill-rule="nonzero"/></g><path fill="#3857ff" d="M 404.890625 494.339844 C 385.097656 494.339844 368.945312 478.257812 368.945312 458.40625 C 368.945312 454.609375 369.714844 450.941406 370.816406 447.503906 L 328.996094 362.117188 C 325.6875 355.425781 328.046875 347.292969 334.457031 343.371094 C 340.789062 339.417969 349.148438 341.007812 353.636719 347.011719 L 410.609375 423.0625 C 427.710938 425.753906 440.839844 440.527344 440.839844 458.40625 C 440.839844 478.257812 424.765625 494.339844 404.890625 494.339844 Z M 537.609375 458.355469 C 537.609375 446.453125 547.273438 436.808594 559.171875 436.808594 L 592.25 436.808594 C 581.558594 342.726562 501.738281 269.730469 404.890625 269.730469 C 308.046875 269.730469 228.226562 342.726562 217.535156 436.808594 L 250.613281 436.808594 C 262.507812 436.808594 272.175781 446.453125 272.175781 458.355469 C 272.175781 470.28125 262.507812 479.925781 250.613281 479.925781 L 217.535156 479.925781 C 227.40625 566.957031 296.378906 635.953125 383.378906 645.828125 L 383.378906 612.738281 C 383.378906 600.8125 393.019531 591.167969 404.917969 591.167969 C 416.839844 591.167969 426.480469 600.8125 426.480469 612.738281 L 426.480469 645.828125 C 513.402344 635.953125 582.378906 566.878906 592.25 479.925781 L 559.171875 479.925781 C 547.273438 479.925781 537.609375 470.28125 537.609375 458.355469 " fill-opacity="1" fill-rule="nonzero"/><g clip-path="url(#7376070fe4)"><path fill="#3857ff" d="M 404.890625 701.074219 C 271.125 701.074219 162.304688 592.21875 162.304688 458.40625 C 162.304688 324.59375 271.125 215.710938 404.890625 215.710938 C 538.683594 215.710938 647.503906 324.59375 647.503906 458.40625 C 647.503906 592.21875 538.683594 701.074219 404.890625 701.074219 Z M 436.6875 169.183594 L 436.6875 117.679688 L 456.53125 117.679688 C 472.25 117.679688 484.992188 104.933594 484.992188 89.210938 C 484.992188 73.484375 472.25 60.738281 456.53125 60.738281 L 353.25 60.738281 C 337.535156 60.738281 324.789062 73.484375 324.789062 89.210938 C 324.789062 104.933594 337.535156 117.679688 353.25 117.679688 L 373.125 117.679688 L 373.125 169.183594 C 218.101562 186.113281 99.28125 325.335938 115.511719 488.109375 C 129.382812 627.308594 243.074219 738.0625 382.535156 748.527344 C 552.96875 761.351562 695.785156 626.230469 695.785156 458.40625 C 695.785156 308.691406 582.171875 185.085938 436.6875 169.183594 " fill-opacity="1" fill-rule="nonzero"/></g></svg>