<svg xmlns="http://www.w3.org/2000/svg" xmlns:xlink="http://www.w3.org/1999/xlink" width="1080" zoomAndPan="magnify" viewBox="0 0 810 809.999993" height="1080" preserveAspectRatio="xMidYMid meet" version="1.0"><rect x="-81" width="972" fill="#ffffff" y="-80.999999" height="971.999992" fill-opacity="1"/><rect x="-81" width="972" fill="#ffffff" y="-80.999999" height="971.999992" fill-opacity="1"/><path fill="#3857ff" d="M 491.847656 292.316406 L 451.855469 257.210938 C 452.75 245.824219 452.582031 234.453125 451.355469 223.097656 L 490.601562 186.621094 C 491.429688 185.855469 492.140625 184.988281 492.730469 184.027344 C 493.324219 183.0625 493.773438 182.039062 494.078125 180.949219 C 494.386719 179.863281 494.542969 178.753906 494.542969 177.625 C 494.546875 176.496094 494.394531 175.386719 494.089844 174.296875 C 491.484375 164.683594 488.203125 155.304688 484.246094 146.160156 C 480.253906 137.058594 475.808594 128.175781 470.917969 119.519531 C 470.332031 118.503906 469.617188 117.589844 468.773438 116.773438 C 467.929688 115.960938 466.992188 115.277344 465.957031 114.726562 C 464.921875 114.175781 463.828125 113.78125 462.679688 113.535156 C 461.535156 113.292969 460.375 113.210938 459.207031 113.296875 L 405.757812 116.90625 C 398.394531 108.109375 390.253906 100.101562 381.339844 92.878906 L 383.210938 39.59375 C 383.257812 38.449219 383.148438 37.316406 382.882812 36.203125 C 382.613281 35.085938 382.199219 34.03125 381.640625 33.03125 C 381.078125 32.03125 380.390625 31.125 379.578125 30.316406 C 378.765625 29.507812 377.859375 28.824219 376.855469 28.265625 C 359.441406 18.378906 341.003906 11.078125 321.539062 6.355469 C 320.433594 6.078125 319.3125 5.957031 318.171875 5.992188 C 317.03125 6.023438 315.917969 6.210938 314.832031 6.550781 C 313.742188 6.890625 312.722656 7.371094 311.765625 7.996094 C 310.8125 8.617188 309.957031 9.355469 309.207031 10.214844 L 274.074219 50.175781 C 262.679688 49.285156 251.300781 49.449219 239.9375 50.675781 L 203.4375 11.457031 C 202.671875 10.636719 201.816406 9.933594 200.863281 9.34375 C 199.914062 8.753906 198.898438 8.296875 197.828125 7.980469 C 196.753906 7.664062 195.65625 7.492188 194.535156 7.472656 C 193.414062 7.449219 192.3125 7.574219 191.226562 7.847656 C 181.566406 10.507812 172.140625 13.824219 162.945312 17.808594 C 153.714844 21.6875 144.785156 26.171875 136.160156 31.253906 C 135.167969 31.84375 134.277344 32.558594 133.480469 33.398438 C 132.6875 34.234375 132.019531 35.164062 131.480469 36.1875 C 130.941406 37.207031 130.554688 38.28125 130.3125 39.410156 C 130.070312 40.539062 129.984375 41.679688 130.054688 42.832031 L 133.667969 96.238281 C 124.90625 103.554688 116.933594 111.648438 109.75 120.515625 L 56.179688 118.773438 C 55.035156 118.699219 53.90625 118.792969 52.792969 119.050781 C 51.675781 119.304688 50.621094 119.714844 49.625 120.277344 C 48.628906 120.84375 47.734375 121.535156 46.941406 122.359375 C 46.148438 123.1875 45.488281 124.105469 44.964844 125.121094 C 35.128906 142.503906 27.820312 160.886719 23.039062 180.273438 C 22.765625 181.378906 22.648438 182.5 22.683594 183.636719 C 22.71875 184.777344 22.910156 185.886719 23.25 186.972656 C 23.589844 188.058594 24.070312 189.082031 24.691406 190.035156 C 25.308594 190.992188 26.046875 191.84375 26.902344 192.597656 L 66.890625 227.832031 C 66 239.214844 66.164062 250.585938 67.390625 261.941406 L 28.148438 298.417969 C 27.316406 299.1875 26.605469 300.050781 26.015625 301.015625 C 25.425781 301.976562 24.976562 303.003906 24.667969 304.089844 C 24.359375 305.179688 24.203125 306.285156 24.203125 307.417969 C 24.203125 308.546875 24.355469 309.65625 24.660156 310.742188 C 27.316406 320.339844 30.597656 329.71875 34.5 338.878906 C 38.496094 347.984375 42.9375 356.863281 47.832031 365.519531 C 48.421875 366.53125 49.136719 367.445312 49.984375 368.253906 C 50.828125 369.066406 51.765625 369.746094 52.800781 370.296875 C 53.835938 370.847656 54.925781 371.246094 56.070312 371.492188 C 57.214844 371.738281 58.371094 371.820312 59.542969 371.746094 L 112.988281 368.136719 C 120.386719 376.859375 128.523438 384.828125 137.40625 392.039062 L 135.539062 445.445312 C 135.488281 446.59375 135.597656 447.722656 135.867188 448.839844 C 136.132812 449.953125 136.546875 451.011719 137.105469 452.011719 C 137.667969 453.011719 138.355469 453.917969 139.167969 454.726562 C 139.980469 455.535156 140.886719 456.21875 141.890625 456.777344 C 159.28125 466.617188 177.675781 473.921875 197.082031 478.6875 C 198.199219 478.929688 199.328125 479.023438 200.46875 478.972656 C 201.609375 478.925781 202.726562 478.730469 203.820312 478.394531 C 204.910156 478.054688 205.941406 477.582031 206.910156 476.980469 C 207.878906 476.375 208.757812 475.65625 209.539062 474.828125 L 244.671875 434.863281 C 256.066406 435.757812 267.445312 435.589844 278.808594 434.367188 L 315.3125 473.582031 C 316.078125 474.410156 316.945312 475.121094 317.910156 475.710938 C 318.875 476.300781 319.898438 476.75 320.988281 477.058594 C 322.074219 477.367188 323.183594 477.519531 324.316406 477.523438 C 325.445312 477.523438 326.554688 477.371094 327.644531 477.066406 C 337.25 474.414062 346.632812 471.132812 355.800781 467.234375 C 364.910156 463.316406 373.753906 458.875 382.335938 453.910156 C 383.335938 453.324219 384.238281 452.613281 385.042969 451.777344 C 385.847656 450.941406 386.523438 450.015625 387.070312 448.992188 C 387.621094 447.972656 388.023438 446.898438 388.277344 445.765625 C 388.53125 444.636719 388.625 443.492188 388.566406 442.335938 L 385.078125 388.675781 C 393.835938 381.359375 401.8125 373.265625 409 364.402344 L 462.445312 366.269531 C 463.59375 366.34375 464.734375 366.253906 465.859375 365.996094 C 466.984375 365.742188 468.046875 365.332031 469.054688 364.769531 C 470.058594 364.207031 470.964844 363.511719 471.769531 362.6875 C 472.574219 361.863281 473.246094 360.9375 473.78125 359.917969 C 483.609375 342.492188 490.917969 324.066406 495.707031 304.644531 C 495.980469 303.539062 496.097656 302.417969 496.0625 301.277344 C 496.027344 300.140625 495.839844 299.027344 495.5 297.941406 C 495.15625 296.855469 494.675781 295.835938 494.058594 294.878906 C 493.4375 293.925781 492.699219 293.070312 491.847656 292.316406 Z M 455.59375 341.121094 L 403.640625 339.253906 C 402.632812 339.207031 401.632812 339.289062 400.640625 339.488281 C 399.652344 339.691406 398.699219 340.007812 397.789062 340.441406 C 396.875 340.875 396.03125 341.414062 395.25 342.054688 C 394.46875 342.695312 393.777344 343.421875 393.175781 344.234375 C 384.960938 355.171875 375.449219 364.839844 364.648438 373.238281 C 363.832031 373.847656 363.105469 374.546875 362.464844 375.339844 C 361.824219 376.128906 361.292969 376.988281 360.867188 377.910156 C 360.445312 378.835938 360.140625 379.796875 359.957031 380.800781 C 359.773438 381.800781 359.71875 382.808594 359.789062 383.820312 L 363.152344 435.984375 C 357.421875 439.097656 351.691406 441.960938 346.082031 444.324219 C 339.730469 446.941406 334 449.179688 328.269531 450.925781 L 292.886719 412.953125 C 292.207031 412.21875 291.445312 411.570312 290.613281 411.011719 C 289.777344 410.457031 288.890625 410.003906 287.945312 409.660156 C 287.003906 409.3125 286.035156 409.082031 285.039062 408.964844 C 284.042969 408.847656 283.042969 408.851562 282.046875 408.96875 C 268.367188 410.859375 254.664062 411.066406 240.933594 409.59375 C 239.25 409.429688 237.597656 409.59375 235.976562 410.09375 C 234.359375 410.589844 232.894531 411.375 231.589844 412.457031 C 231.46875 412.578125 231.34375 412.578125 231.21875 412.703125 C 230.855469 413.003906 230.523438 413.335938 230.222656 413.699219 L 195.835938 452.667969 C 183.679688 449.085938 171.96875 444.394531 160.703125 438.597656 L 162.570312 386.683594 C 162.601562 385.679688 162.511719 384.683594 162.304688 383.695312 C 162.097656 382.710938 161.777344 381.765625 161.34375 380.855469 C 160.910156 379.945312 160.378906 379.101562 159.742188 378.316406 C 159.109375 377.535156 158.390625 376.839844 157.589844 376.226562 C 146.597656 367.976562 136.882812 358.433594 128.4375 347.59375 C 127.789062 346.8125 127.058594 346.113281 126.246094 345.5 C 125.4375 344.890625 124.566406 344.378906 123.636719 343.964844 C 122.707031 343.554688 121.742188 343.257812 120.742188 343.070312 C 119.746094 342.886719 118.738281 342.816406 117.722656 342.863281 L 65.769531 346.347656 C 62.53125 340.375 59.789062 334.644531 57.421875 329.167969 C 54.808594 322.820312 52.566406 317.09375 50.820312 311.367188 L 88.945312 275.886719 C 89.671875 275.210938 90.308594 274.464844 90.855469 273.636719 C 91.402344 272.8125 91.84375 271.933594 92.179688 271.003906 C 92.515625 270.070312 92.738281 269.113281 92.84375 268.128906 C 92.949219 267.144531 92.9375 266.160156 92.804688 265.179688 C 90.914062 251.507812 90.707031 237.816406 92.183594 224.09375 C 92.304688 223.101562 92.304688 222.109375 92.183594 221.117188 C 92.0625 220.125 91.824219 219.164062 91.464844 218.230469 C 91.105469 217.296875 90.640625 216.417969 90.066406 215.601562 C 89.492188 214.78125 88.828125 214.042969 88.070312 213.390625 L 49.078125 179.027344 C 52.640625 166.875 57.332031 155.171875 63.15625 143.921875 L 115.230469 145.664062 C 116.230469 145.714844 117.222656 145.640625 118.207031 145.441406 C 119.191406 145.242188 120.132812 144.925781 121.035156 144.492188 C 121.941406 144.058594 122.773438 143.515625 123.542969 142.871094 C 124.308594 142.226562 124.988281 141.5 125.570312 140.683594 C 133.863281 129.769531 143.414062 120.101562 154.226562 111.675781 C 155.019531 111.039062 155.726562 110.316406 156.347656 109.507812 C 156.964844 108.699219 157.480469 107.828125 157.894531 106.898438 C 158.304688 105.96875 158.601562 105 158.78125 103.996094 C 158.960938 102.996094 159.019531 101.988281 158.960938 100.96875 L 155.472656 48.929688 C 160.703125 46.191406 166.308594 43.453125 172.664062 40.714844 C 179.390625 37.851562 185.121094 35.734375 190.480469 33.992188 L 225.984375 72.210938 C 226.65625 72.9375 227.40625 73.578125 228.234375 74.125 C 229.058594 74.671875 229.9375 75.113281 230.871094 75.449219 C 231.804688 75.785156 232.761719 76.003906 233.746094 76.109375 C 234.734375 76.214844 235.71875 76.203125 236.699219 76.070312 C 250.378906 74.183594 264.082031 73.972656 277.8125 75.449219 C 278.804688 75.570312 279.796875 75.570312 280.792969 75.449219 C 281.785156 75.328125 282.746094 75.089844 283.683594 74.730469 C 284.617188 74.371094 285.492188 73.90625 286.3125 73.332031 C 287.132812 72.757812 287.871094 72.09375 288.527344 71.339844 L 322.785156 32.375 C 334.992188 35.933594 346.742188 40.621094 358.042969 46.441406 L 356.175781 98.355469 C 356.136719 99.363281 356.222656 100.359375 356.425781 101.347656 C 356.632812 102.335938 356.949219 103.285156 357.382812 104.195312 C 357.816406 105.105469 358.355469 105.949219 358.992188 106.730469 C 359.628906 107.511719 360.351562 108.207031 361.160156 108.8125 C 372.144531 117.019531 381.863281 126.523438 390.3125 137.324219 C 390.941406 138.128906 391.660156 138.847656 392.464844 139.480469 C 393.269531 140.113281 394.140625 140.640625 395.074219 141.0625 C 396.003906 141.484375 396.976562 141.792969 397.980469 141.980469 C 398.988281 142.167969 400.003906 142.234375 401.023438 142.179688 L 452.976562 138.691406 C 456.214844 144.667969 458.957031 150.394531 461.324219 155.871094 C 464.0625 162.347656 466.183594 168.074219 468.050781 173.675781 L 429.804688 209.15625 C 429.078125 209.828125 428.4375 210.578125 427.890625 211.402344 C 427.34375 212.226562 426.902344 213.105469 426.566406 214.039062 C 426.230469 214.96875 426.007812 215.929688 425.902344 216.914062 C 425.796875 217.898438 425.8125 218.882812 425.941406 219.863281 C 427.832031 233.53125 428.039062 247.226562 426.566406 260.945312 C 426.441406 261.9375 426.441406 262.929688 426.5625 263.921875 C 426.683594 264.914062 426.925781 265.878906 427.28125 266.8125 C 427.640625 267.746094 428.109375 268.621094 428.683594 269.441406 C 429.253906 270.257812 429.921875 270.996094 430.675781 271.652344 L 458.832031 296.425781 L 469.546875 305.886719 C 466.058594 318.09375 461.410156 329.835938 455.59375 341.121094 Z M 455.59375 341.121094 " fill-opacity="1" fill-rule="nonzero"/><path fill="#3857ff" d="M 260.496094 342.117188 C 316.070312 342.117188 361.28125 297.433594 361.28125 242.519531 C 361.28125 187.605469 316.070312 142.925781 260.496094 142.925781 C 258.136719 142.921875 255.78125 143.003906 253.429688 143.167969 C 251.078125 143.328125 248.734375 143.574219 246.398438 143.902344 C 244.0625 144.230469 241.742188 144.636719 239.4375 145.125 C 237.128906 145.617188 234.84375 146.183594 232.578125 146.835938 C 230.3125 147.484375 228.070312 148.210938 225.855469 149.019531 C 223.640625 149.824219 221.453125 150.707031 219.300781 151.664062 C 217.148438 152.625 215.03125 153.65625 212.949219 154.765625 C 210.867188 155.871094 208.828125 157.050781 206.828125 158.300781 C 204.828125 159.550781 202.875 160.867188 200.96875 162.253906 C 199.0625 163.640625 197.207031 165.089844 195.402344 166.609375 C 193.597656 168.125 191.847656 169.703125 190.15625 171.339844 C 188.460938 172.980469 186.824219 174.675781 185.25 176.425781 C 183.675781 178.179688 182.164062 179.984375 180.714844 181.84375 C 179.265625 183.703125 177.882812 185.609375 176.566406 187.566406 C 175.25 189.523438 174.007812 191.519531 172.832031 193.5625 C 171.65625 195.605469 170.554688 197.6875 169.523438 199.804688 C 169.171875 200.542969 168.894531 201.308594 168.691406 202.101562 C 168.488281 202.894531 168.367188 203.699219 168.324219 204.515625 C 168.28125 205.332031 168.316406 206.144531 168.433594 206.953125 C 168.550781 207.765625 168.746094 208.554688 169.019531 209.324219 C 169.292969 210.097656 169.636719 210.832031 170.054688 211.535156 C 170.472656 212.238281 170.957031 212.894531 171.503906 213.503906 C 172.050781 214.109375 172.652344 214.660156 173.308594 215.148438 C 173.964844 215.636719 174.660156 216.058594 175.398438 216.410156 C 176.136719 216.761719 176.90625 217.039062 177.699219 217.242188 C 178.492188 217.441406 179.296875 217.5625 180.113281 217.605469 C 180.929688 217.648438 181.746094 217.613281 182.554688 217.496094 C 183.363281 217.375 184.15625 217.179688 184.925781 216.90625 C 185.699219 216.636719 186.433594 216.289062 187.136719 215.871094 C 187.839844 215.453125 188.496094 214.96875 189.105469 214.421875 C 189.710938 213.875 190.261719 213.273438 190.75 212.617188 C 191.238281 211.960938 191.660156 211.265625 192.011719 210.527344 C 192.789062 208.933594 193.621094 207.367188 194.503906 205.832031 C 195.390625 204.296875 196.332031 202.792969 197.320312 201.324219 C 198.3125 199.855469 199.355469 198.421875 200.445312 197.027344 C 201.539062 195.628906 202.675781 194.273438 203.863281 192.957031 C 205.050781 191.636719 206.28125 190.363281 207.558594 189.132812 C 208.835938 187.902344 210.152344 186.71875 211.511719 185.578125 C 212.871094 184.441406 214.265625 183.351562 215.703125 182.308594 C 217.136719 181.269531 218.609375 180.277344 220.113281 179.339844 C 221.617188 178.402344 223.152344 177.515625 224.71875 176.6875 C 226.285156 175.855469 227.878906 175.082031 229.5 174.363281 C 231.121094 173.640625 232.765625 172.980469 234.433594 172.375 C 236.101562 171.773438 237.785156 171.226562 239.492188 170.738281 C 241.199219 170.253906 242.917969 169.828125 244.652344 169.460938 C 246.386719 169.09375 248.132812 168.789062 249.890625 168.546875 C 251.648438 168.300781 253.410156 168.121094 255.179688 168 C 256.949219 167.878906 258.722656 167.820312 260.496094 167.824219 C 302.328125 167.824219 336.367188 201.324219 336.367188 242.519531 C 336.367188 283.714844 302.34375 317.21875 260.496094 317.21875 C 222.882812 317.21875 190.652344 289.703125 185.496094 253.226562 C 185.382812 252.417969 185.1875 251.625 184.917969 250.855469 C 184.648438 250.082031 184.308594 249.34375 183.890625 248.640625 C 183.476562 247.9375 182.996094 247.277344 182.449219 246.667969 C 181.90625 246.058594 181.304688 245.507812 180.652344 245.015625 C 180 244.523438 179.304688 244.101562 178.566406 243.746094 C 177.828125 243.390625 177.066406 243.109375 176.273438 242.90625 C 175.480469 242.703125 174.675781 242.578125 173.859375 242.53125 C 173.042969 242.484375 172.226562 242.519531 171.417969 242.632812 C 170.605469 242.746094 169.816406 242.9375 169.042969 243.207031 C 168.269531 243.476562 167.53125 243.820312 166.828125 244.234375 C 166.121094 244.652344 165.464844 245.132812 164.855469 245.675781 C 164.246094 246.21875 163.691406 246.820312 163.199219 247.472656 C 162.707031 248.125 162.285156 248.820312 161.929688 249.558594 C 161.574219 250.292969 161.292969 251.058594 161.089844 251.847656 C 160.886719 252.640625 160.761719 253.445312 160.714844 254.261719 C 160.667969 255.078125 160.703125 255.890625 160.816406 256.699219 C 167.703125 305.402344 210.550781 342.117188 260.496094 342.117188 Z M 260.496094 342.117188 " fill-opacity="1" fill-rule="nonzero"/><path fill="#3857ff" d="M 710.117188 302.527344 C 706.972656 299.378906 703.726562 296.34375 700.378906 293.414062 C 697.03125 290.484375 693.589844 287.671875 690.050781 284.976562 C 686.515625 282.277344 682.894531 279.699219 679.183594 277.246094 C 675.472656 274.792969 671.683594 272.464844 667.820312 270.261719 C 663.953125 268.0625 660.015625 265.992188 656.011719 264.054688 C 652.007812 262.121094 647.941406 260.320312 643.816406 258.65625 C 639.691406 256.992188 635.511719 255.46875 631.285156 254.082031 C 627.054688 252.699219 622.785156 251.457031 618.472656 250.359375 C 614.164062 249.261719 609.820312 248.3125 605.445312 247.503906 C 601.066406 246.699219 596.671875 246.039062 592.25 245.527344 C 587.832031 245.015625 583.398438 244.65625 578.953125 244.441406 C 574.511719 244.226562 570.0625 244.160156 565.617188 244.246094 C 561.167969 244.328125 556.726562 244.5625 552.292969 244.945312 C 547.859375 245.328125 543.445312 245.855469 539.046875 246.535156 C 534.652344 247.214844 530.28125 248.039062 525.9375 249.007812 C 521.597656 249.980469 517.292969 251.09375 513.027344 252.355469 C 512.238281 252.582031 511.484375 252.886719 510.757812 253.261719 C 510.03125 253.640625 509.347656 254.085938 508.707031 254.597656 C 508.070312 255.109375 507.488281 255.675781 506.960938 256.304688 C 506.433594 256.929688 505.972656 257.601562 505.578125 258.320312 C 505.183594 259.035156 504.867188 259.785156 504.617188 260.5625 C 504.371094 261.34375 504.203125 262.140625 504.117188 262.953125 C 504.027344 263.765625 504.015625 264.582031 504.089844 265.398438 C 504.160156 266.210938 504.308594 267.011719 504.539062 267.796875 C 504.769531 268.582031 505.074219 269.335938 505.449219 270.0625 C 505.828125 270.789062 506.273438 271.46875 506.789062 272.109375 C 507.300781 272.746094 507.871094 273.328125 508.496094 273.851562 C 509.125 274.378906 509.796875 274.835938 510.515625 275.230469 C 511.234375 275.625 511.984375 275.941406 512.765625 276.1875 C 513.546875 276.433594 514.34375 276.601562 515.15625 276.6875 C 515.96875 276.777344 516.785156 276.785156 517.601562 276.710938 C 518.417969 276.640625 519.214844 276.488281 520.003906 276.257812 C 523.558594 275.214844 527.140625 274.285156 530.757812 273.472656 C 534.371094 272.65625 538.007812 271.957031 541.667969 271.375 C 545.328125 270.792969 549 270.328125 552.691406 269.976562 C 556.378906 269.628906 560.074219 269.398438 563.777344 269.285156 C 567.480469 269.171875 571.183594 269.175781 574.886719 269.296875 C 578.59375 269.421875 582.289062 269.660156 585.976562 270.019531 C 589.664062 270.378906 593.335938 270.851562 596.992188 271.445312 C 600.652344 272.035156 604.285156 272.746094 607.898438 273.566406 C 611.511719 274.390625 615.09375 275.328125 618.648438 276.382812 C 622.199219 277.433594 625.714844 278.597656 629.195312 279.875 C 632.671875 281.148438 636.105469 282.535156 639.496094 284.03125 C 642.886719 285.523438 646.226562 287.125 649.511719 288.832031 C 652.800781 290.539062 656.03125 292.351562 659.203125 294.265625 C 662.375 296.175781 665.484375 298.191406 668.527344 300.300781 C 671.570312 302.414062 674.546875 304.617188 677.449219 306.917969 C 680.351562 309.21875 683.179688 311.609375 685.929688 314.09375 C 688.679688 316.574219 691.347656 319.136719 693.933594 321.789062 C 696.523438 324.441406 699.023438 327.171875 701.433594 329.980469 C 703.847656 332.792969 706.167969 335.675781 708.398438 338.632812 C 710.625 341.589844 712.757812 344.617188 714.792969 347.710938 C 716.828125 350.804688 718.761719 353.960938 720.597656 357.179688 C 722.433594 360.394531 724.160156 363.667969 725.789062 366.996094 C 727.414062 370.324219 728.929688 373.699219 730.339844 377.121094 C 731.75 380.546875 733.050781 384.011719 734.238281 387.519531 C 735.429688 391.027344 736.503906 394.566406 737.46875 398.144531 C 738.429688 401.71875 739.277344 405.320312 740.011719 408.949219 C 740.746094 412.578125 741.359375 416.230469 741.863281 419.898438 C 742.363281 423.566406 742.746094 427.246094 743.011719 430.941406 C 743.277344 434.632812 743.421875 438.332031 743.453125 442.035156 C 743.480469 445.738281 743.394531 449.4375 743.1875 453.132812 C 742.980469 456.832031 742.65625 460.515625 742.214844 464.195312 C 741.773438 467.871094 741.214844 471.527344 740.539062 475.167969 C 739.863281 478.808594 739.074219 482.425781 738.167969 486.015625 C 737.261719 489.605469 736.242188 493.164062 735.109375 496.6875 C 733.976562 500.214844 732.730469 503.699219 731.375 507.144531 C 730.019531 510.59375 728.558594 513.992188 726.984375 517.34375 C 725.414062 520.699219 723.734375 523.996094 721.953125 527.242188 C 720.167969 530.488281 718.285156 533.675781 716.300781 536.800781 C 714.3125 539.925781 712.230469 542.984375 710.046875 545.980469 C 707.867188 548.972656 705.59375 551.894531 703.226562 554.742188 C 700.855469 557.589844 698.402344 560.359375 695.855469 563.050781 C 693.3125 565.742188 690.683594 568.351562 687.972656 570.875 C 685.261719 573.398438 682.476562 575.835938 679.609375 578.183594 C 676.742188 580.527344 673.804688 582.78125 670.792969 584.941406 C 667.785156 587.101562 664.707031 589.160156 661.566406 591.125 C 658.425781 593.089844 655.226562 594.949219 651.964844 596.710938 C 648.703125 598.46875 645.390625 600.125 642.027344 601.671875 C 638.660156 603.21875 635.25 604.660156 631.789062 605.992188 C 628.332031 607.324219 624.835938 608.542969 621.300781 609.652344 C 617.765625 610.757812 614.199219 611.753906 610.601562 612.632812 C 607 613.515625 603.378906 614.28125 599.730469 614.929688 C 596.082031 615.582031 592.417969 616.113281 588.734375 616.53125 C 585.054688 616.949219 581.363281 617.246094 577.660156 617.429688 C 573.960938 617.609375 570.257812 617.675781 566.550781 617.621094 C 562.847656 617.566406 559.148438 617.394531 555.453125 617.101562 C 551.761719 616.8125 548.078125 616.40625 544.410156 615.878906 C 540.742188 615.355469 537.097656 614.714844 533.46875 613.957031 C 529.839844 613.199219 526.242188 612.328125 522.671875 611.34375 C 519.097656 610.355469 515.5625 609.257812 512.0625 608.046875 C 508.558594 606.832031 505.101562 605.511719 501.683594 604.078125 C 498.265625 602.648438 494.898438 601.109375 491.582031 599.460938 C 488.261719 597.816406 485 596.0625 481.792969 594.210938 C 478.585938 592.355469 475.441406 590.398438 472.359375 588.34375 C 469.277344 586.289062 466.261719 584.140625 463.316406 581.890625 C 457.109375 577.238281 451.292969 572.132812 445.875 566.578125 C 440.285156 561.148438 435.175781 555.296875 430.550781 549.027344 C 423.738281 540.179688 417.835938 530.757812 412.847656 520.769531 C 407.859375 510.777344 403.875 500.402344 400.902344 489.640625 C 400.6875 488.855469 400.394531 488.097656 400.03125 487.367188 C 399.667969 486.636719 399.234375 485.949219 398.734375 485.304688 C 398.234375 484.660156 397.675781 484.070312 397.058594 483.535156 C 396.441406 483 395.78125 482.53125 395.070312 482.125 C 394.359375 481.722656 393.617188 481.390625 392.84375 481.136719 C 392.070312 480.878906 391.277344 480.699219 390.464844 480.597656 C 389.65625 480.496094 388.84375 480.476562 388.03125 480.535156 C 387.214844 480.59375 386.414062 480.730469 385.628906 480.949219 C 384.839844 481.164062 384.082031 481.457031 383.351562 481.824219 C 382.625 482.191406 381.9375 482.625 381.292969 483.128906 C 380.648438 483.628906 380.0625 484.191406 379.527344 484.808594 C 378.996094 485.425781 378.527344 486.089844 378.128906 486.800781 C 377.726562 487.511719 377.398438 488.253906 377.140625 489.027344 C 376.886719 489.804688 376.710938 490.597656 376.613281 491.40625 C 376.515625 492.214844 376.496094 493.027344 376.558594 493.839844 C 376.621094 494.65625 376.761719 495.453125 376.980469 496.238281 C 379.894531 506.753906 383.664062 516.949219 388.285156 526.832031 C 392.90625 536.714844 398.316406 546.148438 404.511719 555.125 L 332.378906 627.082031 C 331.832031 626.535156 331.242188 626.042969 330.601562 625.605469 C 329.964844 625.167969 329.289062 624.792969 328.582031 624.484375 C 327.871094 624.175781 327.140625 623.933594 326.386719 623.761719 C 325.628906 623.589844 324.867188 623.488281 324.09375 623.460938 C 323.320312 623.429688 322.550781 623.472656 321.785156 623.589844 C 321.019531 623.707031 320.273438 623.894531 319.542969 624.148438 C 318.8125 624.40625 318.113281 624.730469 317.441406 625.117188 C 316.773438 625.507812 316.144531 625.953125 315.5625 626.460938 L 229.972656 699.664062 C 226.90625 702.304688 224.144531 705.226562 221.683594 708.433594 C 219.21875 711.640625 217.109375 715.066406 215.351562 718.707031 C 213.59375 722.347656 212.226562 726.128906 211.246094 730.050781 C 210.269531 733.972656 209.699219 737.953125 209.539062 741.992188 C 209.390625 746.019531 209.652344 750.019531 210.332031 753.996094 C 211.007812 757.96875 212.089844 761.828125 213.566406 765.578125 C 215.046875 769.328125 216.894531 772.886719 219.113281 776.253906 C 221.332031 779.621094 223.871094 782.722656 226.734375 785.566406 C 229.070312 787.886719 231.582031 790 234.273438 791.902344 C 236.960938 793.804688 239.789062 795.472656 242.757812 796.902344 C 245.726562 798.332031 248.792969 799.507812 251.957031 800.425781 C 255.125 801.34375 258.34375 801.992188 261.617188 802.371094 C 263.980469 802.625 266.355469 802.730469 268.734375 802.699219 C 271.113281 802.664062 273.484375 802.488281 275.839844 802.167969 C 278.199219 801.851562 280.53125 801.394531 282.832031 800.796875 C 285.136719 800.199219 287.394531 799.464844 289.609375 798.59375 C 291.824219 797.726562 293.980469 796.726562 296.074219 795.597656 C 298.167969 794.472656 300.1875 793.222656 302.132812 791.851562 C 304.078125 790.480469 305.933594 789 307.699219 787.40625 C 309.46875 785.8125 311.132812 784.121094 312.695312 782.328125 L 385.949219 696.800781 C 386.449219 696.214844 386.890625 695.585938 387.273438 694.914062 C 387.660156 694.246094 387.976562 693.542969 388.230469 692.816406 C 388.480469 692.085938 388.664062 691.339844 388.78125 690.578125 C 388.894531 689.816406 388.9375 689.046875 388.910156 688.277344 C 388.878906 687.503906 388.78125 686.742188 388.609375 685.992188 C 388.441406 685.238281 388.203125 684.507812 387.894531 683.800781 C 387.589844 683.089844 387.21875 682.417969 386.789062 681.777344 C 386.355469 681.136719 385.871094 680.542969 385.328125 679.992188 L 457.210938 608.035156 C 459.746094 609.757812 462.320312 611.421875 464.933594 613.027344 C 467.546875 614.632812 470.195312 616.175781 472.878906 617.660156 C 475.5625 619.140625 478.277344 620.5625 481.027344 621.917969 C 483.773438 623.273438 486.554688 624.566406 489.363281 625.796875 C 492.171875 627.027344 495.007812 628.1875 497.871094 629.289062 C 500.734375 630.386719 503.617188 631.417969 506.53125 632.382812 C 509.441406 633.347656 512.371094 634.246094 515.324219 635.074219 C 518.273438 635.902344 521.242188 636.664062 524.230469 637.359375 C 527.21875 638.050781 530.21875 638.675781 533.234375 639.226562 C 536.25 639.78125 539.277344 640.265625 542.316406 640.683594 C 545.351562 641.097656 548.398438 641.441406 551.453125 641.714844 C 554.507812 641.988281 557.566406 642.191406 560.628906 642.324219 C 563.691406 642.460938 566.757812 642.519531 569.824219 642.511719 C 572.890625 642.503906 575.953125 642.425781 579.015625 642.277344 C 582.078125 642.125 585.136719 641.90625 588.1875 641.617188 C 591.242188 641.324219 594.285156 640.964844 597.320312 640.53125 C 600.355469 640.101562 603.382812 639.601562 606.394531 639.03125 C 609.40625 638.460938 612.40625 637.820312 615.386719 637.109375 C 618.371094 636.402344 621.335938 635.625 624.28125 634.777344 C 627.230469 633.933594 630.15625 633.019531 633.0625 632.039062 C 635.964844 631.058594 638.847656 630.011719 641.703125 628.898438 C 644.558594 627.785156 647.390625 626.605469 650.191406 625.359375 C 652.992188 624.117188 655.765625 622.808594 658.507812 621.4375 C 661.25 620.0625 663.957031 618.628906 666.632812 617.132812 C 669.308594 615.636719 671.949219 614.078125 674.550781 612.460938 C 677.15625 610.839844 679.71875 609.164062 682.246094 607.425781 C 684.769531 605.6875 687.253906 603.894531 689.699219 602.042969 C 692.140625 600.191406 694.539062 598.285156 696.894531 596.320312 C 699.25 594.359375 701.558594 592.34375 703.820312 590.273438 C 706.082031 588.207031 708.296875 586.085938 710.460938 583.914062 C 712.625 581.746094 714.734375 579.523438 716.796875 577.257812 C 718.859375 574.988281 720.867188 572.671875 722.820312 570.3125 C 724.777344 567.953125 726.675781 565.546875 728.519531 563.097656 C 730.359375 560.648438 732.148438 558.160156 733.875 555.628906 C 735.605469 553.097656 737.273438 550.527344 738.882812 547.921875 C 740.492188 545.3125 742.039062 542.667969 743.527344 539.988281 C 745.015625 537.308594 746.441406 534.597656 747.800781 531.851562 C 749.164062 529.109375 750.460938 526.332031 751.695312 523.527344 C 752.929688 520.722656 754.097656 517.890625 755.203125 515.03125 C 756.304688 512.171875 757.34375 509.289062 758.3125 506.382812 C 759.28125 503.476562 760.183594 500.550781 761.019531 497.601562 C 761.855469 494.652344 762.621094 491.6875 763.316406 488.703125 C 764.015625 485.71875 764.644531 482.722656 765.203125 479.707031 C 765.761719 476.695312 766.253906 473.671875 766.671875 470.636719 C 767.089844 467.601562 767.441406 464.558594 767.71875 461.507812 C 768 458.453125 768.207031 455.398438 768.34375 452.335938 C 768.480469 449.277344 768.550781 446.214844 768.546875 443.148438 C 768.542969 440.085938 768.46875 437.023438 768.320312 433.964844 C 768.175781 430.902344 767.960938 427.847656 767.675781 424.796875 C 767.386719 421.746094 767.03125 418.703125 766.605469 415.667969 C 766.179688 412.632812 765.679688 409.613281 765.113281 406.601562 C 764.546875 403.589844 763.914062 400.59375 763.207031 397.609375 C 762.503906 394.628906 761.730469 391.664062 760.886719 388.71875 C 760.042969 385.773438 759.136719 382.847656 758.160156 379.941406 C 757.179688 377.039062 756.136719 374.15625 755.027344 371.300781 C 753.917969 368.445312 752.742188 365.617188 751.5 362.8125 C 750.261719 360.011719 748.957031 357.238281 747.585938 354.5 C 746.21875 351.757812 744.785156 349.046875 743.292969 346.371094 C 741.796875 343.695312 740.242188 341.054688 738.628906 338.453125 C 737.011719 335.847656 735.335938 333.28125 733.601562 330.757812 C 731.867188 328.230469 730.074219 325.742188 728.226562 323.300781 C 726.375 320.855469 724.472656 318.457031 722.511719 316.097656 C 720.550781 313.742188 718.539062 311.433594 716.472656 309.171875 C 714.402344 306.90625 712.285156 304.691406 710.117188 302.527344 Z M 293.757812 766.144531 C 293.003906 767.023438 292.207031 767.859375 291.363281 768.65625 C 290.523438 769.453125 289.644531 770.203125 288.722656 770.90625 C 287.804688 771.613281 286.851562 772.269531 285.867188 772.875 C 284.878906 773.484375 283.867188 774.039062 282.820312 774.542969 C 281.777344 775.042969 280.710938 775.492188 279.621094 775.886719 C 278.53125 776.277344 277.425781 776.617188 276.300781 776.894531 C 275.175781 777.171875 274.039062 777.394531 272.894531 777.558594 C 271.746094 777.71875 270.59375 777.820312 269.4375 777.867188 C 268.277344 777.910156 267.121094 777.894531 265.964844 777.816406 C 264.808594 777.742188 263.660156 777.609375 262.519531 777.414062 C 261.375 777.222656 260.246094 776.96875 259.128906 776.660156 C 258.015625 776.351562 256.917969 775.984375 255.839844 775.5625 C 254.761719 775.136719 253.707031 774.660156 252.675781 774.128906 C 251.648438 773.597656 250.648438 773.015625 249.679688 772.382812 C 248.710938 771.746094 247.773438 771.066406 246.875 770.335938 C 245.976562 769.605469 245.117188 768.832031 244.296875 768.011719 C 243.480469 767.195312 242.703125 766.335938 241.972656 765.4375 C 241.242188 764.539062 240.558594 763.605469 239.925781 762.636719 C 239.292969 761.667969 238.707031 760.667969 238.175781 759.640625 C 237.644531 758.613281 237.167969 757.558594 236.746094 756.480469 C 236.320312 755.402344 235.953125 754.304688 235.644531 753.191406 C 235.335938 752.074219 235.082031 750.945312 234.890625 749.804688 C 234.695312 748.664062 234.5625 747.515625 234.484375 746.359375 C 234.410156 745.207031 234.394531 744.050781 234.4375 742.890625 C 234.480469 741.734375 234.585938 740.582031 234.746094 739.4375 C 234.910156 738.292969 235.128906 737.15625 235.410156 736.03125 C 235.691406 734.910156 236.027344 733.804688 236.417969 732.714844 C 236.8125 731.625 237.261719 730.558594 237.765625 729.515625 C 238.265625 728.472656 238.824219 727.460938 239.429688 726.472656 C 240.039062 725.488281 240.695312 724.535156 241.402344 723.617188 C 242.105469 722.699219 242.859375 721.820312 243.65625 720.980469 C 244.453125 720.140625 245.289062 719.34375 246.167969 718.585938 L 322.910156 652.855469 L 359.539062 689.457031 C 359.539062 689.457031 293.757812 766.019531 293.757812 766.144531 Z M 367.636719 662.316406 L 350.070312 644.761719 L 419.710938 575.167969 C 422.453125 578.15625 425.195312 581.144531 428.183594 584.257812 C 431.300781 587.246094 434.289062 589.984375 437.277344 592.722656 Z M 367.636719 662.316406 " fill-opacity="1" fill-rule="nonzero"/><path fill="#3857ff" d="M 488.695312 523.789062 C 486.824219 521.9375 485.023438 520.023438 483.289062 518.046875 C 481.550781 516.066406 479.886719 514.03125 478.296875 511.9375 C 476.703125 509.84375 475.183594 507.695312 473.742188 505.496094 C 472.296875 503.296875 470.933594 501.050781 469.648438 498.753906 C 468.363281 496.457031 467.160156 494.121094 466.039062 491.742188 C 464.914062 489.363281 463.878906 486.945312 462.925781 484.496094 C 461.972656 482.042969 461.105469 479.558594 460.324219 477.046875 C 459.546875 474.535156 458.855469 472 458.253906 469.4375 C 457.652344 466.878906 457.140625 464.300781 456.71875 461.703125 C 456.296875 459.105469 455.964844 456.5 455.726562 453.878906 C 455.488281 451.257812 455.339844 448.636719 455.285156 446.003906 C 455.226562 443.375 455.265625 440.746094 455.390625 438.121094 C 455.519531 435.492188 455.738281 432.871094 456.050781 430.261719 C 456.363281 427.648438 456.765625 425.050781 457.257812 422.46875 C 457.75 419.882812 458.332031 417.320312 459.003906 414.777344 C 459.675781 412.234375 460.4375 409.714844 461.285156 407.226562 C 461.546875 406.453125 461.730469 405.660156 461.835938 404.847656 C 461.941406 404.039062 461.964844 403.226562 461.910156 402.410156 C 461.855469 401.59375 461.722656 400.792969 461.507812 400.003906 C 461.292969 399.214844 461.007812 398.453125 460.644531 397.722656 C 460.28125 396.988281 459.847656 396.296875 459.347656 395.652344 C 458.851562 395.003906 458.292969 394.410156 457.675781 393.875 C 457.058594 393.335938 456.398438 392.863281 455.6875 392.457031 C 454.980469 392.046875 454.238281 391.714844 453.460938 391.453125 C 452.6875 391.191406 451.894531 391.007812 451.082031 390.902344 C 450.273438 390.796875 449.457031 390.773438 448.640625 390.828125 C 447.824219 390.882812 447.023438 391.019531 446.234375 391.230469 C 445.445312 391.445312 444.683594 391.734375 443.949219 392.09375 C 443.214844 392.457031 442.527344 392.890625 441.878906 393.386719 C 441.230469 393.886719 440.636719 394.445312 440.097656 395.058594 C 439.5625 395.675781 439.089844 396.339844 438.679688 397.046875 C 438.273438 397.753906 437.9375 398.496094 437.675781 399.273438 C 436.855469 401.714844 436.105469 404.179688 435.421875 406.667969 C 434.742188 409.152344 434.128906 411.65625 433.585938 414.179688 C 433.042969 416.699219 432.570312 419.230469 432.167969 421.777344 C 431.769531 424.324219 431.4375 426.882812 431.179688 429.449219 C 430.921875 432.011719 430.734375 434.582031 430.621094 437.160156 C 430.503906 439.734375 430.460938 442.3125 430.492188 444.890625 C 430.519531 447.46875 430.621094 450.042969 430.792969 452.613281 C 430.96875 455.1875 431.210938 457.753906 431.527344 460.3125 C 431.84375 462.871094 432.234375 465.417969 432.691406 467.957031 C 433.148438 470.492188 433.679688 473.015625 434.277344 475.523438 C 434.878906 478.03125 435.546875 480.519531 436.285156 482.988281 C 437.023438 485.460938 437.832031 487.90625 438.707031 490.332031 C 439.582031 492.757812 440.523438 495.15625 441.535156 497.53125 C 442.542969 499.902344 443.617188 502.246094 444.757812 504.558594 C 445.898438 506.871094 447.101562 509.152344 448.371094 511.398438 C 449.636719 513.640625 450.96875 515.851562 452.359375 518.023438 C 453.75 520.195312 455.199219 522.324219 456.710938 524.414062 C 458.21875 526.503906 459.785156 528.550781 461.410156 530.554688 C 463.035156 532.558594 464.714844 534.515625 466.449219 536.425781 C 468.179688 538.335938 469.96875 540.195312 471.804688 542.003906 C 473.640625 543.8125 475.527344 545.570312 477.464844 547.277344 C 479.398438 548.980469 481.382812 550.628906 483.410156 552.222656 C 485.4375 553.816406 487.507812 555.355469 489.621094 556.832031 C 491.734375 558.3125 493.886719 559.730469 496.082031 561.089844 C 498.273438 562.445312 500.503906 563.742188 502.769531 564.976562 C 505.035156 566.210938 507.332031 567.382812 509.664062 568.488281 C 511.992188 569.59375 514.351562 570.632812 516.742188 571.605469 C 519.128906 572.582031 521.542969 573.488281 523.984375 574.328125 C 526.421875 575.167969 528.882812 575.9375 531.367188 576.640625 C 533.847656 577.34375 536.351562 577.976562 538.867188 578.539062 C 541.386719 579.101562 543.917969 579.59375 546.460938 580.015625 C 549.007812 580.4375 551.5625 580.789062 554.128906 581.066406 C 556.691406 581.347656 559.261719 581.554688 561.839844 581.6875 C 564.417969 581.824219 566.996094 581.886719 569.574219 581.878906 C 572.15625 581.871094 574.734375 581.792969 577.308594 581.640625 C 579.882812 581.488281 582.453125 581.265625 585.015625 580.96875 C 587.578125 580.675781 590.132812 580.308594 592.675781 579.871094 C 595.21875 579.433594 597.746094 578.925781 600.261719 578.34375 C 602.773438 577.765625 605.269531 577.117188 607.75 576.402344 C 610.226562 575.683594 612.683594 574.894531 615.117188 574.042969 C 617.550781 573.1875 619.960938 572.265625 622.339844 571.273438 C 624.722656 570.285156 627.078125 569.230469 629.402344 568.109375 C 631.726562 566.988281 634.015625 565.804688 636.273438 564.558594 C 638.53125 563.308594 640.75 562 642.933594 560.625 C 645.121094 559.253906 647.265625 557.820312 649.367188 556.328125 C 651.472656 554.839844 653.535156 553.289062 655.550781 551.683594 C 657.570312 550.074219 659.539062 548.414062 661.464844 546.695312 C 663.390625 544.980469 665.265625 543.210938 667.089844 541.390625 C 668.917969 539.566406 670.691406 537.695312 672.414062 535.777344 C 674.132812 533.855469 675.800781 531.890625 677.414062 529.875 C 679.023438 527.863281 680.578125 525.804688 682.074219 523.707031 C 683.574219 521.605469 685.007812 519.464844 686.386719 517.285156 C 687.765625 515.105469 689.078125 512.890625 690.332031 510.636719 C 691.585938 508.382812 692.777344 506.09375 693.902344 503.773438 C 695.027344 501.457031 696.085938 499.105469 697.082031 496.726562 C 698.074219 494.347656 699.003906 491.941406 699.863281 489.511719 C 700.722656 487.082031 701.515625 484.628906 702.238281 482.152344 C 702.960938 479.679688 703.613281 477.183594 704.199219 474.675781 C 704.78125 472.164062 705.296875 469.636719 705.738281 467.097656 C 706.179688 464.558594 706.550781 462.007812 706.851562 459.445312 C 707.152344 456.886719 707.378906 454.316406 707.539062 451.746094 C 707.695312 449.171875 707.777344 446.59375 707.792969 444.015625 C 707.804688 441.4375 707.746094 438.863281 707.613281 436.289062 C 707.484375 433.710938 707.28125 431.144531 707.007812 428.578125 C 706.730469 426.015625 706.386719 423.460938 705.96875 420.917969 C 705.550781 418.375 705.0625 415.84375 704.503906 413.324219 C 703.945312 410.808594 703.316406 408.308594 702.621094 405.828125 C 701.921875 403.34375 701.15625 400.882812 700.320312 398.445312 C 699.484375 396.007812 698.578125 393.59375 697.609375 391.203125 C 696.640625 388.8125 695.601562 386.453125 694.5 384.125 C 693.398438 381.792969 692.230469 379.492188 691 377.226562 C 689.769531 374.960938 688.476562 372.730469 687.121094 370.539062 C 685.765625 368.34375 684.351562 366.191406 682.875 364.074219 C 681.398438 361.960938 679.863281 359.886719 678.273438 357.859375 C 676.683594 355.828125 675.035156 353.847656 673.332031 351.910156 C 671.628906 349.972656 669.875 348.082031 668.066406 346.242188 C 666.261719 344.402344 664.402344 342.617188 662.496094 340.878906 C 660.585938 339.144531 658.632812 337.460938 656.632812 335.835938 C 654.628906 334.207031 652.585938 332.640625 650.496094 331.125 C 648.40625 329.613281 646.277344 328.160156 644.105469 326.765625 C 641.933594 325.371094 639.726562 324.039062 637.480469 322.769531 C 635.238281 321.496094 632.957031 320.289062 630.644531 319.148438 C 628.335938 318.003906 625.992188 316.925781 623.621094 315.910156 C 621.246094 314.898438 618.847656 313.953125 616.421875 313.074219 C 613.996094 312.195312 611.546875 311.382812 609.078125 310.640625 C 606.605469 309.898438 604.117188 309.226562 601.609375 308.621094 C 599.101562 308.015625 596.578125 307.484375 594.039062 307.019531 C 591.5 306.558594 588.953125 306.164062 586.390625 305.84375 C 583.832031 305.523438 581.265625 305.273438 578.691406 305.097656 C 576.117188 304.917969 573.539062 304.8125 570.960938 304.78125 C 568.382812 304.746094 565.800781 304.785156 563.222656 304.894531 C 560.648438 305.003906 558.074219 305.1875 555.507812 305.4375 C 552.9375 305.691406 550.378906 306.015625 547.832031 306.414062 C 545.28125 306.808594 542.746094 307.277344 540.222656 307.816406 C 537.699219 308.351562 535.191406 308.960938 532.703125 309.636719 C 530.214844 310.316406 527.746094 311.0625 525.296875 311.875 C 524.519531 312.132812 523.777344 312.464844 523.066406 312.867188 C 522.355469 313.273438 521.691406 313.742188 521.074219 314.277344 C 520.453125 314.8125 519.894531 315.402344 519.390625 316.046875 C 518.890625 316.691406 518.457031 317.378906 518.089844 318.109375 C 517.722656 318.839844 517.429688 319.597656 517.214844 320.386719 C 516.996094 321.171875 516.859375 321.976562 516.796875 322.789062 C 516.738281 323.605469 516.761719 324.417969 516.859375 325.230469 C 516.960938 326.039062 517.140625 326.832031 517.398438 327.609375 C 517.65625 328.382812 517.984375 329.128906 518.386719 329.839844 C 518.792969 330.550781 519.261719 331.214844 519.796875 331.832031 C 520.328125 332.449219 520.917969 333.011719 521.5625 333.511719 C 522.210938 334.015625 522.898438 334.449219 523.628906 334.816406 C 524.359375 335.183594 525.117188 335.476562 525.90625 335.695312 C 526.695312 335.914062 527.496094 336.050781 528.3125 336.113281 C 529.125 336.171875 529.941406 336.152344 530.75 336.050781 C 531.5625 335.953125 532.355469 335.773438 533.132812 335.519531 C 534.726562 334.988281 536.328125 334.492188 537.945312 334.03125 C 539.558594 333.570312 541.183594 333.144531 542.816406 332.757812 C 544.449219 332.371094 546.09375 332.015625 547.742188 331.703125 C 549.390625 331.386719 551.046875 331.105469 552.707031 330.863281 C 554.367188 330.621094 556.035156 330.414062 557.707031 330.246094 C 559.375 330.078125 561.050781 329.945312 562.726562 329.851562 C 564.402344 329.757812 566.082031 329.699219 567.757812 329.679688 C 569.4375 329.65625 571.117188 329.675781 572.796875 329.726562 C 574.472656 329.78125 576.148438 329.871094 577.824219 330 C 579.5 330.128906 581.167969 330.292969 582.835938 330.496094 C 584.503906 330.695312 586.164062 330.933594 587.820312 331.210938 C 589.476562 331.484375 591.128906 331.796875 592.769531 332.144531 C 594.414062 332.492188 596.046875 332.878906 597.671875 333.296875 C 599.296875 333.71875 600.914062 334.175781 602.519531 334.667969 C 604.125 335.160156 605.71875 335.683594 607.300781 336.246094 C 608.882812 336.808594 610.449219 337.40625 612.003906 338.039062 C 613.5625 338.671875 615.101562 339.335938 616.628906 340.035156 C 618.15625 340.738281 619.664062 341.46875 621.15625 342.238281 C 622.652344 343.003906 624.128906 343.804688 625.585938 344.636719 C 627.042969 345.46875 628.484375 346.332031 629.902344 347.226562 C 631.324219 348.125 632.722656 349.050781 634.101562 350.007812 C 635.480469 350.964844 636.835938 351.953125 638.171875 352.96875 C 639.507812 353.988281 640.816406 355.035156 642.105469 356.109375 C 643.394531 357.1875 644.660156 358.289062 645.898438 359.421875 C 647.140625 360.554688 648.355469 361.710938 649.542969 362.898438 C 650.730469 364.082031 651.890625 365.292969 653.027344 366.53125 C 654.164062 367.765625 655.269531 369.027344 656.347656 370.3125 C 657.425781 371.597656 658.476562 372.90625 659.5 374.238281 C 660.519531 375.574219 661.511719 376.925781 662.472656 378.300781 C 663.433594 379.679688 664.363281 381.074219 665.261719 382.492188 C 666.160156 383.910156 667.027344 385.34375 667.863281 386.800781 C 668.699219 388.257812 669.5 389.730469 670.273438 391.21875 C 671.042969 392.710938 671.777344 394.21875 672.484375 395.742188 C 673.1875 397.265625 673.855469 398.804688 674.492188 400.359375 C 675.125 401.910156 675.726562 403.476562 676.292969 405.058594 C 676.859375 406.636719 677.390625 408.230469 677.886719 409.832031 C 678.378906 411.433594 678.839844 413.046875 679.265625 414.671875 C 679.6875 416.296875 680.074219 417.929688 680.425781 419.570312 C 680.777344 421.210938 681.09375 422.855469 681.371094 424.511719 C 681.652344 426.167969 681.894531 427.828125 682.097656 429.492188 C 682.304688 431.15625 682.472656 432.828125 682.601562 434.5 C 682.734375 436.171875 682.828125 437.847656 682.886719 439.523438 C 682.941406 441.199219 682.960938 442.878906 682.945312 444.554688 C 682.925781 446.234375 682.871094 447.910156 682.78125 449.585938 C 682.6875 451.261719 682.5625 452.933594 682.394531 454.605469 C 682.230469 456.273438 682.027344 457.9375 681.789062 459.601562 C 681.546875 461.261719 681.273438 462.914062 680.957031 464.5625 C 680.644531 466.210938 680.296875 467.851562 679.910156 469.488281 C 679.527344 471.121094 679.105469 472.742188 678.648438 474.359375 C 678.191406 475.972656 677.695312 477.578125 677.167969 479.167969 C 676.640625 480.761719 676.078125 482.34375 675.476562 483.910156 C 674.878906 485.476562 674.246094 487.03125 673.578125 488.570312 C 672.910156 490.109375 672.210938 491.636719 671.476562 493.144531 C 670.742188 494.652344 669.972656 496.144531 669.171875 497.617188 C 668.371094 499.09375 667.539062 500.550781 666.671875 501.988281 C 665.808594 503.425781 664.910156 504.84375 663.984375 506.242188 C 663.054688 507.640625 662.09375 509.019531 661.105469 510.375 C 660.117188 511.730469 659.097656 513.0625 658.050781 514.375 C 657 515.683594 655.925781 516.972656 654.820312 518.234375 C 653.714844 519.496094 652.582031 520.734375 651.421875 521.949219 C 650.261719 523.160156 649.074219 524.347656 647.863281 525.507812 C 646.648438 526.667969 645.410156 527.804688 644.148438 528.910156 C 642.886719 530.015625 641.597656 531.089844 640.289062 532.140625 C 638.976562 533.191406 637.644531 534.207031 636.289062 535.199219 C 634.933594 536.1875 633.554688 537.148438 632.15625 538.078125 C 630.757812 539.007812 629.339844 539.902344 627.902344 540.769531 C 626.464844 541.636719 625.007812 542.46875 623.53125 543.273438 C 622.058594 544.074219 620.566406 544.84375 619.054688 545.578125 C 617.546875 546.3125 616.023438 547.015625 614.484375 547.683594 C 612.941406 548.351562 611.386719 548.988281 609.820312 549.585938 C 608.25 550.1875 606.671875 550.75 605.078125 551.28125 C 603.484375 551.808594 601.878906 552.304688 600.265625 552.761719 C 598.648438 553.222656 597.023438 553.644531 595.390625 554.03125 C 593.757812 554.417969 592.117188 554.769531 590.464844 555.082031 C 588.816406 555.398438 587.160156 555.675781 585.5 555.914062 C 583.835938 556.15625 582.171875 556.359375 580.5 556.527344 C 578.828125 556.695312 577.15625 556.824219 575.480469 556.917969 C 573.800781 557.011719 572.125 557.066406 570.445312 557.085938 C 568.765625 557.105469 567.089844 557.089844 565.410156 557.03125 C 563.730469 556.976562 562.054688 556.886719 560.382812 556.753906 C 558.707031 556.625 557.035156 556.460938 555.371094 556.257812 C 553.703125 556.054688 552.042969 555.8125 550.386719 555.535156 C 548.730469 555.261719 547.082031 554.945312 545.4375 554.597656 C 543.796875 554.246094 542.160156 553.859375 540.535156 553.4375 C 538.910156 553.015625 537.296875 552.558594 535.691406 552.066406 C 534.085938 551.574219 532.492188 551.042969 530.910156 550.480469 C 529.332031 549.914062 527.761719 549.316406 526.207031 548.683594 C 524.652344 548.050781 523.113281 547.382812 521.585938 546.683594 C 520.0625 545.980469 518.550781 545.246094 517.058594 544.476562 C 515.566406 543.710938 514.089844 542.910156 512.632812 542.074219 C 511.175781 541.242188 509.738281 540.375 508.320312 539.480469 C 506.902344 538.582031 505.503906 537.652344 504.125 536.695312 C 502.746094 535.734375 501.390625 534.746094 500.054688 533.726562 C 498.722656 532.710938 497.410156 531.660156 496.125 530.585938 C 494.835938 529.507812 493.574219 528.402344 492.332031 527.269531 C 491.09375 526.136719 489.882812 524.976562 488.695312 523.789062 Z M 488.695312 523.789062 " fill-opacity="1" fill-rule="nonzero"/></svg>