<svg xmlns="http://www.w3.org/2000/svg" xmlns:xlink="http://www.w3.org/1999/xlink" width="1080" zoomAndPan="magnify" viewBox="0 0 810 809.999993" height="1080" preserveAspectRatio="xMidYMid meet" version="1.0"><defs><clipPath id="e555702039"><path d="M 1 469 L 312 469 L 312 793.949219 L 1 793.949219 Z M 1 469 " clip-rule="nonzero"/></clipPath></defs><rect x="-81" width="972" fill="#ffffff" y="-80.999999" height="971.999992" fill-opacity="1"/><rect x="-81" width="972" fill="#ffffff" y="-80.999999" height="971.999992" fill-opacity="1"/><g clip-path="url(#e555702039)"><path fill="#3857ff" d="M 307.691406 473.269531 C 302.773438 468.585938 294.992188 468.777344 290.308594 473.695312 L 5.269531 773.109375 C 0.589844 778.03125 0.777344 785.8125 5.695312 790.496094 C 8.074219 792.761719 11.125 793.886719 14.171875 793.886719 C 17.417969 793.886719 20.660156 792.605469 23.078125 790.070312 L 308.117188 490.65625 C 312.796875 485.738281 312.605469 477.953125 307.691406 473.269531 Z M 307.691406 473.269531 " fill-opacity="1" fill-rule="nonzero"/></g><path fill="#3857ff" d="M 559.824219 317.949219 L 498.042969 292.613281 L 512.558594 277.371094 C 517.242188 272.453125 517.054688 264.671875 512.140625 259.988281 C 507.226562 255.304688 499.441406 255.488281 494.757812 260.410156 L 467.832031 288.679688 C 465.03125 291.621094 463.863281 295.753906 464.710938 299.726562 C 465.558594 303.699219 468.3125 307 472.070312 308.539062 L 550.710938 340.789062 C 550.867188 340.851562 551.027344 340.914062 551.183594 340.972656 C 556.210938 342.792969 560.046875 346.546875 561.976562 351.535156 C 563.90625 356.519531 563.601562 361.878906 561.117188 366.613281 C 556.933594 374.578125 547.457031 378.3125 538.980469 375.363281 L 418 324.121094 C 417.804688 324.039062 417.613281 323.960938 417.414062 323.890625 C 411.804688 321.84375 407.792969 317.34375 406.417969 311.53125 C 405.039062 305.71875 406.597656 299.894531 410.691406 295.550781 L 479.976562 222.011719 C 482.679688 219.140625 485.863281 216.875 489.351562 215.277344 C 489.421875 215.246094 489.488281 215.214844 489.558594 215.183594 C 493.039062 213.625 496.820312 212.726562 500.742188 212.574219 L 536.253906 211.226562 C 540.308594 211.074219 544.023438 208.933594 546.1875 205.503906 C 548.351562 202.074219 548.683594 197.796875 547.078125 194.074219 L 513.742188 116.75 C 513.667969 116.582031 513.59375 116.414062 513.511719 116.25 C 510.472656 109.980469 510.054688 102.898438 512.335938 96.316406 C 514.621094 89.730469 519.328125 84.429688 525.597656 81.390625 L 598.210938 46.152344 C 607.722656 64.96875 609.703125 80.042969 603.878906 90.105469 C 596.511719 102.847656 577.269531 107.074219 561.667969 106.773438 C 554.882812 106.679688 549.273438 112.042969 549.140625 118.832031 C 549.011719 125.621094 554.410156 131.230469 561.195312 131.359375 C 577.601562 131.660156 592.320312 128.394531 603.992188 122.179688 L 613.976562 141.617188 L 614.433594 142.703125 C 616.90625 148.496094 617.847656 150.703125 614.613281 155.832031 L 599.53125 177.777344 C 595.6875 183.375 597.105469 191.03125 602.699219 194.875 C 604.828125 196.339844 607.253906 197.039062 609.652344 197.039062 C 613.566406 197.039062 617.410156 195.175781 619.796875 191.707031 L 635 169.578125 C 635.078125 169.464844 635.152344 169.351562 635.226562 169.238281 C 645.578125 153.050781 640.238281 140.535156 637.050781 133.058594 L 636.464844 131.679688 C 636.339844 131.375 636.203125 131.078125 636.050781 130.785156 L 623.121094 105.613281 C 623.84375 104.574219 624.527344 103.511719 625.160156 102.417969 C 636.875 82.167969 633.066406 55.671875 613.84375 23.675781 C 610.5625 18.222656 603.664062 16.167969 597.9375 18.949219 L 514.863281 59.265625 C 489.808594 71.421875 479.265625 101.632812 491.261719 126.722656 L 517.394531 187.335938 L 499.804688 188.003906 C 493.046875 188.261719 486.523438 189.746094 480.472656 192.320312 L 87.386719 297.480469 C 85.9375 297.867188 84.574219 298.515625 83.363281 299.394531 C 81.878906 300.464844 46.980469 326.125 44.492188 366.660156 C 42.851562 393.460938 55.535156 419.597656 82.199219 444.355469 C 84.527344 446.515625 87.53125 447.636719 90.566406 447.636719 C 92.546875 447.636719 94.546875 447.15625 96.378906 446.175781 L 124.691406 430.964844 C 136.445312 441.515625 149.289062 449.402344 163.792969 454.96875 C 165.242188 455.523438 166.730469 455.789062 168.195312 455.789062 C 173.136719 455.789062 177.796875 452.785156 179.675781 447.894531 C 182.109375 441.554688 178.941406 434.445312 172.605469 432.011719 C 163.609375 428.558594 155.605469 424.109375 148.078125 418.402344 L 346.867188 311.628906 C 352.847656 308.414062 355.09375 300.960938 351.878906 294.976562 C 348.667969 288.996094 341.214844 286.75 335.234375 289.960938 L 92.714844 420.230469 C 76 402.808594 68.035156 385.382812 69.023438 368.335938 C 70.460938 343.609375 90.363281 325.398438 96.179688 320.585938 L 439.980469 228.609375 L 392.796875 278.6875 C 383.074219 289.011719 379.222656 303.410156 382.492188 317.210938 C 385.28125 328.960938 392.886719 338.769531 403.304688 344.421875 L 356.769531 394.921875 C 344.269531 408.488281 339.171875 426.644531 342.785156 444.738281 C 346.398438 462.828125 358.078125 477.632812 374.832031 485.355469 C 375.246094 485.546875 375.671875 485.714844 376.105469 485.859375 L 456.714844 512.582031 L 381.921875 569.457031 C 372.601562 576.542969 366.59375 587.289062 365.429688 598.933594 C 364.265625 610.582031 368.03125 622.304688 375.761719 631.09375 C 384.0625 640.53125 395.800781 645.414062 407.605469 645.414062 C 416.542969 645.414062 425.519531 642.613281 433.070312 636.878906 L 562.011719 539.984375 C 576.914062 528.785156 584.328125 511.066406 581.839844 492.589844 C 579.355469 474.109375 567.523438 458.984375 550.191406 452.121094 L 458.601562 415.871094 C 452.289062 413.371094 445.148438 416.464844 442.648438 422.78125 C 440.152344 429.09375 443.242188 436.238281 449.554688 438.734375 L 541.144531 474.988281 C 550.085938 478.527344 556.191406 486.332031 557.472656 495.867188 C 558.753906 505.402344 554.933594 514.542969 547.242188 520.324219 L 418.246094 617.253906 C 410.882812 622.847656 400.328125 621.792969 394.21875 614.847656 C 390.933594 611.113281 389.398438 606.328125 389.890625 601.375 C 390.386719 596.425781 392.835938 592.042969 396.796875 589.03125 L 490.160156 518.035156 C 493.789062 515.273438 495.59375 510.730469 494.84375 506.226562 C 494.097656 501.726562 490.917969 498.011719 486.585938 496.574219 L 384.542969 462.746094 C 375.324219 458.28125 368.902344 449.996094 366.890625 439.914062 C 364.835938 429.625 367.734375 419.296875 374.84375 411.582031 L 427.226562 354.734375 L 529.714844 398.144531 C 529.90625 398.226562 530.101562 398.304688 530.300781 398.375 C 535.074219 400.117188 539.992188 400.945312 544.847656 400.945312 C 560.394531 400.945312 575.316406 392.441406 582.878906 378.042969 C 588.632812 367.085938 589.367188 354.1875 584.898438 342.648438 C 580.464844 331.199219 571.335938 322.210938 559.824219 317.949219 Z M 559.824219 317.949219 " fill-opacity="1" fill-rule="nonzero"/><path fill="#3857ff" d="M 366.757812 511.757812 C 361.808594 507.113281 354.027344 507.359375 349.382812 512.308594 L 151.777344 722.910156 C 147.128906 727.863281 147.375 735.648438 152.328125 740.292969 C 154.699219 742.519531 157.722656 743.621094 160.738281 743.621094 C 164.011719 743.621094 167.285156 742.320312 169.703125 739.742188 L 367.308594 529.140625 C 371.957031 524.1875 371.710938 516.40625 366.757812 511.757812 Z M 366.757812 511.757812 " fill-opacity="1" fill-rule="nonzero"/><path fill="#3857ff" d="M 794.949219 67.136719 C 780.40625 50.101562 754.714844 48.074219 737.683594 62.617188 L 663.070312 126.324219 C 657.90625 130.734375 657.292969 138.496094 661.703125 143.660156 C 666.113281 148.824219 673.871094 149.4375 679.035156 145.027344 L 753.648438 81.320312 C 756.902344 78.535156 761.046875 77.179688 765.320312 77.527344 C 769.585938 77.863281 773.472656 79.84375 776.253906 83.101562 C 781.992188 89.828125 781.191406 99.96875 774.46875 105.710938 L 568.003906 282.003906 C 562.839844 286.410156 562.226562 294.171875 566.636719 299.335938 C 569.066406 302.183594 572.519531 303.648438 575.992188 303.648438 C 578.816406 303.648438 581.65625 302.683594 583.96875 300.703125 L 790.429688 124.414062 C 807.464844 109.867188 809.492188 84.171875 794.949219 67.136719 Z M 794.949219 67.136719 " fill-opacity="1" fill-rule="nonzero"/><path fill="#3857ff" d="M 137.265625 558.398438 L 231.429688 463.933594 C 236.226562 459.125 236.210938 451.339844 231.402344 446.542969 C 226.597656 441.75 218.8125 441.761719 214.019531 446.574219 L 119.855469 541.035156 C 115.058594 545.84375 115.074219 553.632812 119.878906 558.425781 C 122.28125 560.816406 125.417969 562.011719 128.558594 562.011719 C 131.710938 562.011719 134.863281 560.808594 137.265625 558.398438 Z M 137.265625 558.398438 " fill-opacity="1" fill-rule="nonzero"/></svg>