<svg version="1.1" id="Layer_1" xmlns="http://www.w3.org/2000/svg" xmlns:xlink="http://www.w3.org/1999/xlink" x="0px" y="0px"
	 width="100%" viewBox="0 0 1847 735" enable-background="new 0 0 1847 735" xml:space="preserve">
<path fill="#000000" opacity="1.000000" stroke="none" 
	d="
M1185.000000,736.000000 
	C790.000000,736.000000 395.500000,736.000000 1.000000,736.000000 
	C1.000000,491.000000 1.000000,246.000000 1.000000,1.000000 
	C616.666687,1.000000 1232.333374,1.000000 1848.000000,1.000000 
	C1848.000000,246.000000 1848.000000,491.000000 1848.000000,736.000000 
	C1627.166626,736.000000 1406.333374,736.000000 1185.000000,736.000000 
M236.687698,707.852844 
	C250.627487,713.048279 264.567291,718.243713 279.267731,723.722656 
	C279.267731,720.385071 279.268219,718.406921 279.267639,716.428833 
	C279.243103,632.266357 279.186859,548.103821 279.218140,463.941315 
	C279.225189,444.967529 279.224640,425.983765 279.837006,407.024261 
	C280.158051,397.084442 280.898193,386.992432 282.990692,377.302063 
	C297.705231,309.159546 360.083832,261.401367 425.136536,261.861481 
	C500.795654,262.396637 576.461609,261.966370 652.124634,261.956238 
	C670.281982,261.953827 688.439270,261.955902 706.677368,261.955902 
	C668.420349,131.686600 534.514832,6.232302 353.036926,12.499231 
	C174.736954,18.656420 56.594826,147.683853 24.242020,262.083527 
	C118.584343,262.083527 212.825623,262.083527 307.027466,262.083527 
	C307.081329,262.590485 307.167480,262.814240 307.102295,262.874634 
	C305.881195,264.005615 304.653046,265.129608 303.405182,266.231049 
	C281.722595,285.369080 264.701813,307.950134 253.433731,334.652222 
	C251.925949,338.225220 250.146271,339.120026 246.494339,339.114990 
	C168.497803,339.006866 90.501114,339.033020 12.504444,339.033081 
	C10.720057,339.033081 8.935668,339.033051 6.993185,339.033051 
	C6.993185,351.940155 6.993185,364.351562 6.993185,377.175842 
	C84.800293,377.175842 162.391434,377.175842 238.955811,377.175842 
	C238.955811,403.123657 238.955811,428.641785 238.955811,454.618591 
	C164.048035,454.618591 90.498520,454.618591 16.594738,454.618591 
	C16.817175,455.926361 16.897022,456.732788 17.094576,457.509308 
	C35.368423,529.338623 72.192841,589.956787 127.342636,639.406677 
	C159.621597,668.349609 196.691666,689.746399 236.687698,707.852844 
M496.491425,704.987488 
	C609.872375,658.023254 681.321106,574.429138 714.537659,456.472809 
	C631.291870,456.472809 549.066711,456.472809 466.472168,456.472809 
	C466.472168,542.766602 466.472168,628.799438 466.472168,715.648926 
	C476.467316,712.102295 486.115509,708.678772 496.491425,704.987488 
M626.500122,337.254486 
	C587.837158,337.254608 549.174255,337.272095 510.511292,337.249176 
	C481.547241,337.232025 454.249847,343.815460 429.635895,359.239990 
	C381.169800,389.611755 354.671204,433.273926 354.169922,490.864044 
	C353.493958,568.519104 354.002136,646.184448 354.002136,723.845337 
	C354.002136,725.784363 354.002136,727.723450 354.002136,729.617554 
	C365.630463,729.617554 376.680084,729.617554 387.943451,729.617554 
	C387.943451,727.920959 387.943512,726.601562 387.943390,725.282166 
	C387.936462,646.625122 387.996887,567.968018 387.897827,489.311096 
	C387.836456,440.569153 423.631104,392.147064 470.157227,377.438568 
	C487.989471,371.801178 506.117279,371.235107 524.471130,371.257751 
	C578.133789,371.323975 631.796509,371.281342 685.459229,371.281342 
	C715.623657,371.281372 745.788147,371.271149 775.952515,371.309967 
	C777.547546,371.312042 779.204285,371.531281 780.719666,372.007629 
	C782.294189,372.502625 783.717773,374.038086 785.231628,374.073242 
	C794.016663,374.277252 802.808960,374.173035 812.061829,374.173035 
	C812.061829,376.053619 812.061829,377.506287 812.061829,378.958984 
	C812.061829,394.291199 811.944641,409.624512 812.090759,424.955322 
	C812.284424,445.273102 811.875610,465.643066 813.231873,485.889709 
	C814.480957,504.537018 822.174011,520.600891 838.384155,531.412292 
	C850.460327,539.466492 864.153137,541.748169 878.308105,542.081360 
	C895.099915,542.476624 911.062073,539.486755 925.556885,530.417053 
	C928.524292,528.560303 929.503784,526.851990 928.098511,523.222900 
	C924.383301,513.628418 921.206543,503.825684 917.800842,494.110962 
	C915.882812,488.640045 914.782837,488.676270 909.495422,490.947937 
	C903.631653,493.467224 897.424500,495.993439 891.171692,496.645386 
	C874.413635,498.392731 864.237366,489.396149 864.001587,472.515472 
	C863.554932,440.525269 863.718384,408.526550 863.644409,376.531342 
	C863.642944,375.898499 863.840271,375.265228 864.020935,374.171753 
	C883.172241,374.171753 902.251587,374.171753 921.462402,374.171753 
	C921.462402,360.294739 921.462402,346.905609 921.462402,333.063507 
	C902.063782,333.063507 882.978882,333.063507 863.501343,333.063507 
	C863.501343,316.861786 863.501343,301.111206 863.501343,285.011536 
	C846.203247,287.869812 829.353455,290.654022 812.026733,293.517029 
	C812.026733,306.794220 812.026733,319.859802 812.026733,333.159180 
	C801.546143,333.159180 791.589172,333.159180 781.558289,333.159180 
	C781.100525,334.658264 780.704773,335.954315 780.307739,337.254486 
	C729.155762,337.254486 678.328003,337.254486 626.500122,337.254486 
M1390.008057,523.496338 
	C1390.008057,499.706238 1390.008057,475.916168 1390.008057,452.126068 
	C1390.455078,451.738800 1390.902100,451.351532 1391.349121,450.964264 
	C1393.504150,452.513306 1396.196899,453.653534 1397.732788,455.673401 
	C1417.475708,481.637939 1437.125366,507.674896 1456.585205,533.852112 
	C1459.067261,537.190918 1461.572754,538.361023 1465.639160,538.267395 
	C1477.629150,537.991211 1489.629395,538.168701 1501.625732,538.168701 
	C1505.745972,538.168701 1509.866333,538.168701 1515.287109,538.168701 
	C1513.850464,534.951477 1513.190918,532.397766 1511.749756,530.411072 
	C1494.457397,506.574097 1477.045776,482.823669 1459.672729,459.045227 
	C1452.045288,448.605560 1444.434570,438.153656 1436.842163,427.742798 
	C1459.403564,398.566193 1481.725708,369.748871 1503.943481,340.851349 
	C1505.367798,338.998749 1505.985962,336.526367 1507.366089,333.491516 
	C1490.178589,333.491516 1474.534180,333.586365 1458.892700,333.415588 
	C1455.558838,333.379211 1453.477051,334.390564 1451.437134,337.064240 
	C1433.467773,360.617920 1415.389282,384.089142 1397.169556,407.449493 
	C1395.783203,409.226959 1393.069702,409.969177 1389.750732,411.905792 
	C1389.750732,357.060455 1389.750732,304.182800 1389.750732,251.459076 
	C1372.468872,251.459076 1355.704712,251.459076 1338.939453,251.459076 
	C1338.939453,347.130829 1338.939453,442.505890 1338.939453,538.004456 
	C1356.010986,538.004456 1372.774780,538.004456 1390.008057,538.004456 
	C1390.008057,533.401733 1390.008057,528.947693 1390.008057,523.496338 
M1653.486084,332.968109 
	C1608.290527,323.914764 1568.069824,332.388458 1534.733032,366.064972 
	C1541.610718,376.435730 1548.215576,386.224060 1554.621216,396.141174 
	C1557.068726,399.930389 1559.252319,399.562897 1562.114014,396.687439 
	C1565.042480,393.744965 1568.067749,390.845245 1571.353882,388.321350 
	C1589.042236,374.735718 1608.839478,368.605927 1631.169434,371.990906 
	C1641.336060,373.532043 1647.844116,379.578674 1648.886963,388.177429 
	C1650.142578,398.531006 1646.126587,405.145691 1635.511353,409.326447 
	C1630.588135,411.265381 1625.467529,412.829803 1620.311890,414.028229 
	C1605.266846,417.525452 1589.988037,420.137207 1575.126221,424.266998 
	C1561.515503,428.049255 1549.035278,434.702209 1540.359985,446.385284 
	C1529.232056,461.371307 1528.658081,478.486694 1531.904907,496.028015 
	C1535.087646,513.223389 1544.081055,526.482422 1559.740845,534.620422 
	C1570.414429,540.167175 1582.057739,542.155701 1594.015869,542.122925 
	C1617.649170,542.058167 1637.512207,534.869995 1649.308838,512.557312 
	C1649.808350,511.612305 1651.513062,510.382355 1652.147461,510.623474 
	C1653.451660,511.119232 1654.946899,512.321106 1655.422119,513.585999 
	C1657.918823,520.230896 1661.371582,526.092224 1666.789917,530.861267 
	C1680.080322,542.559265 1710.818359,541.273560 1724.080566,534.659912 
	C1725.194946,534.104248 1726.114746,531.777466 1726.000488,530.364441 
	C1725.262817,521.239624 1723.947998,512.156921 1723.370239,503.025757 
	C1723.054565,498.035431 1721.961914,496.553589 1716.509888,497.821075 
	C1704.715942,500.563080 1699.112305,495.657867 1699.013062,483.632202 
	C1699.004761,482.632477 1699.015991,481.632629 1699.014648,480.632843 
	C1698.975952,450.640045 1699.286987,420.641541 1698.798950,390.656067 
	C1698.313599,360.839478 1682.469116,340.845978 1653.486084,332.968109 
M1040.421021,371.033966 
	C1044.059570,371.376007 1047.736694,371.491791 1051.329102,372.104156 
	C1060.635620,373.690582 1067.041870,379.728882 1068.034424,387.535309 
	C1069.394897,398.235687 1065.888550,404.764984 1055.862671,408.907074 
	C1050.670776,411.052094 1045.219482,412.719391 1039.744629,414.001343 
	C1024.708862,417.522156 1009.436096,420.134399 994.566650,424.229858 
	C981.287231,427.887390 969.173950,434.404602 960.331055,445.449615 
	C949.573975,458.885498 948.457153,474.754852 950.320435,490.966461 
	C952.159180,506.964447 958.757202,520.752197 972.132141,530.359009 
	C985.541870,539.990906 1001.017944,542.561829 1017.153809,542.030579 
	C1039.412842,541.297791 1057.544189,533.266296 1068.596802,512.741089 
	C1069.148560,511.716431 1070.835449,510.559814 1071.811157,510.703644 
	C1072.915405,510.866486 1074.028564,512.287109 1074.764648,513.406250 
	C1078.458252,519.022339 1081.197144,525.535583 1085.803589,530.230286 
	C1098.452148,543.121216 1130.720215,541.257446 1143.691162,534.524048 
	C1144.660645,534.020752 1145.614990,532.230042 1145.519409,531.129639 
	C1144.668335,521.345886 1143.468018,511.592590 1142.611816,501.809174 
	C1142.242798,497.593079 1140.837280,496.677490 1136.543945,497.722229 
	C1124.259399,500.711578 1118.475220,495.947998 1118.271973,483.364807 
	C1118.234253,481.032898 1118.270630,478.699860 1118.265137,476.367340 
	C1118.196411,447.378387 1118.433105,418.384521 1117.967285,389.401947 
	C1117.528809,362.109802 1102.546509,341.289368 1077.182495,334.227356 
	C1047.942627,326.086182 1018.875000,327.794373 990.791992,339.997986 
	C976.743042,346.103058 964.446472,354.722168 954.298950,366.434692 
	C960.808167,376.250977 967.224609,385.948395 973.664734,395.630035 
	C976.616089,400.066864 978.032959,400.163574 981.719666,396.383453 
	C997.551758,380.150543 1016.666626,371.375854 1040.421021,371.033966 
M1291.421997,490.273987 
	C1289.127930,490.565857 1286.744019,490.556610 1284.557129,491.208252 
	C1278.877441,492.900726 1273.406616,495.826660 1267.633911,496.574860 
	C1249.981079,498.862854 1239.236694,489.628815 1239.036133,471.875793 
	C1238.674561,439.880951 1238.840210,407.880096 1238.807007,375.881744 
	C1238.806519,375.432220 1239.083740,374.982391 1239.379517,374.081543 
	C1258.398682,374.081543 1277.467651,374.081543 1296.530518,374.081543 
	C1296.530518,360.207031 1296.530518,346.820587 1296.530518,332.978638 
	C1277.106445,332.978638 1258.029663,332.978638 1238.555664,332.978638 
	C1238.555664,316.779266 1238.555664,301.038788 1238.555664,285.017395 
	C1221.258545,287.878296 1204.405518,290.665771 1187.057739,293.535034 
	C1187.057739,306.868591 1187.057739,319.924194 1187.057739,333.378876 
	C1176.419678,333.378876 1166.333740,333.378876 1156.330688,333.378876 
	C1156.330688,347.211517 1156.330688,360.626404 1156.330688,374.428558 
	C1166.744019,374.428558 1176.841797,374.428558 1187.146118,374.428558 
	C1187.146118,387.480347 1187.052002,400.140869 1187.166260,412.799500 
	C1187.382690,436.788177 1187.125977,460.802673 1188.212524,484.754395 
	C1188.939087,500.768524 1194.807251,515.262878 1207.089722,526.413513 
	C1220.055176,538.184387 1235.941040,541.577576 1252.776733,542.057495 
	C1269.916504,542.546204 1286.214722,539.592529 1300.959473,530.201355 
	C1303.788574,528.399475 1304.492676,526.728821 1303.209351,523.343872 
	C1299.148804,512.635132 1295.567017,501.744995 1291.421997,490.273987 
M1758.886719,320.499969 
	C1758.920654,375.988831 1758.776367,431.478699 1759.102417,486.965851 
	C1759.194336,502.617157 1763.221558,517.205383 1774.999390,528.738586 
	C1790.921631,544.330200 1823.777832,544.617188 1839.729370,538.505127 
	C1840.910767,538.052429 1842.113159,535.550110 1841.984253,534.119751 
	C1841.057983,523.842102 1839.864990,513.585999 1838.603027,503.341888 
	C1837.808105,496.889221 1837.688965,496.903931 1830.968018,497.932678 
	C1817.575439,499.982666 1811.121460,494.797089 1810.267944,481.253632 
	C1810.142334,479.260803 1810.178101,477.256348 1810.177979,475.257294 
	C1810.174072,402.604797 1810.174927,329.952332 1810.175049,257.299835 
	C1810.175049,255.366028 1810.174805,253.432220 1810.174805,251.401581 
	C1792.814453,251.401581 1776.066528,251.401581 1758.886841,251.401581 
	C1758.886841,274.257843 1758.886841,296.878876 1758.886719,320.499969 
z"/>
<path fill="#FEFEFE" opacity="1.000000" stroke="none" 
	d="
M236.335358,707.705200 
	C196.691666,689.746399 159.621597,668.349609 127.342636,639.406677 
	C72.192841,589.956787 35.368423,529.338623 17.094576,457.509308 
	C16.897022,456.732788 16.817175,455.926361 16.594738,454.618591 
	C90.498520,454.618591 164.048035,454.618591 238.955811,454.618591 
	C238.955811,428.641785 238.955811,403.123657 238.955811,377.175842 
	C162.391434,377.175842 84.800293,377.175842 6.993185,377.175842 
	C6.993185,364.351562 6.993185,351.940155 6.993185,339.033051 
	C8.935668,339.033051 10.720057,339.033081 12.504444,339.033081 
	C90.501114,339.033020 168.497803,339.006866 246.494339,339.114990 
	C250.146271,339.120026 251.925949,338.225220 253.433731,334.652222 
	C264.701813,307.950134 281.722595,285.369080 303.405182,266.231049 
	C304.653046,265.129608 305.881195,264.005615 307.102295,262.874634 
	C307.167480,262.814240 307.081329,262.590485 307.027466,262.083527 
	C212.825623,262.083527 118.584343,262.083527 24.242020,262.083527 
	C56.594826,147.683853 174.736954,18.656420 353.036926,12.499231 
	C534.514832,6.232302 668.420349,131.686600 706.677368,261.955902 
	C688.439270,261.955902 670.281982,261.953827 652.124634,261.956238 
	C576.461609,261.966370 500.795654,262.396637 425.136536,261.861481 
	C360.083832,261.401367 297.705231,309.159546 282.990692,377.302063 
	C280.898193,386.992432 280.158051,397.084442 279.837006,407.024261 
	C279.224640,425.983765 279.225189,444.967529 279.218140,463.941315 
	C279.186859,548.103821 279.243103,632.266357 279.267639,716.428833 
	C279.268219,718.406921 279.267731,720.385071 279.267731,723.722656 
	C264.567291,718.243713 250.627487,713.048279 236.335358,707.705200 
z"/>
<path fill="#FEFEFE" opacity="1.000000" stroke="none" 
	d="
M496.127563,705.121399 
	C486.115509,708.678772 476.467316,712.102295 466.472168,715.648926 
	C466.472168,628.799438 466.472168,542.766602 466.472168,456.472809 
	C549.066711,456.472809 631.291870,456.472809 714.537659,456.472809 
	C681.321106,574.429138 609.872375,658.023254 496.127563,705.121399 
z"/>
<path fill="#FCFCFC" opacity="1.000000" stroke="none" 
	d="
M627.000183,337.254486 
	C678.328003,337.254486 729.155762,337.254486 780.307739,337.254486 
	C780.704773,335.954315 781.100525,334.658264 781.558289,333.159180 
	C791.589172,333.159180 801.546143,333.159180 812.026733,333.159180 
	C812.026733,319.859802 812.026733,306.794220 812.026733,293.517029 
	C829.353455,290.654022 846.203247,287.869812 863.501343,285.011536 
	C863.501343,301.111206 863.501343,316.861786 863.501343,333.063507 
	C882.978882,333.063507 902.063782,333.063507 921.462402,333.063507 
	C921.462402,346.905609 921.462402,360.294739 921.462402,374.171753 
	C902.251587,374.171753 883.172241,374.171753 864.020935,374.171753 
	C863.840271,375.265228 863.642944,375.898499 863.644409,376.531342 
	C863.718384,408.526550 863.554932,440.525269 864.001587,472.515472 
	C864.237366,489.396149 874.413635,498.392731 891.171692,496.645386 
	C897.424500,495.993439 903.631653,493.467224 909.495422,490.947937 
	C914.782837,488.676270 915.882812,488.640045 917.800842,494.110962 
	C921.206543,503.825684 924.383301,513.628418 928.098511,523.222900 
	C929.503784,526.851990 928.524292,528.560303 925.556885,530.417053 
	C911.062073,539.486755 895.099915,542.476624 878.308105,542.081360 
	C864.153137,541.748169 850.460327,539.466492 838.384155,531.412292 
	C822.174011,520.600891 814.480957,504.537018 813.231873,485.889709 
	C811.875610,465.643066 812.284424,445.273102 812.090759,424.955322 
	C811.944641,409.624512 812.061829,394.291199 812.061829,378.958984 
	C812.061829,377.506287 812.061829,376.053619 812.061829,374.173035 
	C802.808960,374.173035 794.016663,374.277252 785.231628,374.073242 
	C783.717773,374.038086 782.294189,372.502625 780.719666,372.007629 
	C779.204285,371.531281 777.547546,371.312042 775.952515,371.309967 
	C745.788147,371.271149 715.623657,371.281372 685.459229,371.281342 
	C631.796509,371.281342 578.133789,371.323975 524.471130,371.257751 
	C506.117279,371.235107 487.989471,371.801178 470.157227,377.438568 
	C423.631104,392.147064 387.836456,440.569153 387.897827,489.311096 
	C387.996887,567.968018 387.936462,646.625122 387.943390,725.282166 
	C387.943512,726.601562 387.943451,727.920959 387.943451,729.617554 
	C376.680084,729.617554 365.630463,729.617554 354.002136,729.617554 
	C354.002136,727.723450 354.002136,725.784363 354.002136,723.845337 
	C354.002136,646.184448 353.493958,568.519104 354.169922,490.864044 
	C354.671204,433.273926 381.169800,389.611755 429.635895,359.239990 
	C454.249847,343.815460 481.547241,337.232025 510.511292,337.249176 
	C549.174255,337.272095 587.837158,337.254608 627.000183,337.254486 
z"/>
<path fill="#FEFEFE" opacity="1.000000" stroke="none" 
	d="
M1390.008057,523.994995 
	C1390.008057,528.947693 1390.008057,533.401733 1390.008057,538.004456 
	C1372.774780,538.004456 1356.010986,538.004456 1338.939453,538.004456 
	C1338.939453,442.505890 1338.939453,347.130829 1338.939453,251.459076 
	C1355.704712,251.459076 1372.468872,251.459076 1389.750732,251.459076 
	C1389.750732,304.182800 1389.750732,357.060455 1389.750732,411.905792 
	C1393.069702,409.969177 1395.783203,409.226959 1397.169556,407.449493 
	C1415.389282,384.089142 1433.467773,360.617920 1451.437134,337.064240 
	C1453.477051,334.390564 1455.558838,333.379211 1458.892700,333.415588 
	C1474.534180,333.586365 1490.178589,333.491516 1507.366089,333.491516 
	C1505.985962,336.526367 1505.367798,338.998749 1503.943481,340.851349 
	C1481.725708,369.748871 1459.403564,398.566193 1436.842163,427.742798 
	C1444.434570,438.153656 1452.045288,448.605560 1459.672729,459.045227 
	C1477.045776,482.823669 1494.457397,506.574097 1511.749756,530.411072 
	C1513.190918,532.397766 1513.850464,534.951477 1515.287109,538.168701 
	C1509.866333,538.168701 1505.745972,538.168701 1501.625732,538.168701 
	C1489.629395,538.168701 1477.629150,537.991211 1465.639160,538.267395 
	C1461.572754,538.361023 1459.067261,537.190918 1456.585205,533.852112 
	C1437.125366,507.674896 1417.475708,481.637939 1397.732788,455.673401 
	C1396.196899,453.653534 1393.504150,452.513306 1391.349121,450.964264 
	C1390.902100,451.351532 1390.455078,451.738800 1390.008057,452.126068 
	C1390.008057,475.916168 1390.008057,499.706238 1390.008057,523.994995 
z"/>
<path fill="#FEFEFE" opacity="1.000000" stroke="none" 
	d="
M1653.894043,333.026001 
	C1682.469116,340.845978 1698.313599,360.839478 1698.798950,390.656067 
	C1699.286987,420.641541 1698.975952,450.640045 1699.014648,480.632843 
	C1699.015991,481.632629 1699.004761,482.632477 1699.013062,483.632202 
	C1699.112305,495.657867 1704.715942,500.563080 1716.509888,497.821075 
	C1721.961914,496.553589 1723.054565,498.035431 1723.370239,503.025757 
	C1723.947998,512.156921 1725.262817,521.239624 1726.000488,530.364441 
	C1726.114746,531.777466 1725.194946,534.104248 1724.080566,534.659912 
	C1710.818359,541.273560 1680.080322,542.559265 1666.789917,530.861267 
	C1661.371582,526.092224 1657.918823,520.230896 1655.422119,513.585999 
	C1654.946899,512.321106 1653.451660,511.119232 1652.147461,510.623474 
	C1651.513062,510.382355 1649.808350,511.612305 1649.308838,512.557312 
	C1637.512207,534.869995 1617.649170,542.058167 1594.015869,542.122925 
	C1582.057739,542.155701 1570.414429,540.167175 1559.740845,534.620422 
	C1544.081055,526.482422 1535.087646,513.223389 1531.904907,496.028015 
	C1528.658081,478.486694 1529.232056,461.371307 1540.359985,446.385284 
	C1549.035278,434.702209 1561.515503,428.049255 1575.126221,424.266998 
	C1589.988037,420.137207 1605.266846,417.525452 1620.311890,414.028229 
	C1625.467529,412.829803 1630.588135,411.265381 1635.511353,409.326447 
	C1646.126587,405.145691 1650.142578,398.531006 1648.886963,388.177429 
	C1647.844116,379.578674 1641.336060,373.532043 1631.169434,371.990906 
	C1608.839478,368.605927 1589.042236,374.735718 1571.353882,388.321350 
	C1568.067749,390.845245 1565.042480,393.744965 1562.114014,396.687439 
	C1559.252319,399.562897 1557.068726,399.930389 1554.621216,396.141174 
	C1548.215576,386.224060 1541.610718,376.435730 1534.733032,366.064972 
	C1568.069824,332.388458 1608.290527,323.914764 1653.894043,333.026001 
M1581.347778,478.276093 
	C1582.072876,488.810669 1585.949829,497.428589 1596.548218,501.255829 
	C1617.273804,508.740234 1642.697754,499.787659 1647.810669,474.192535 
	C1649.933105,463.568298 1649.457520,452.408905 1649.952148,441.483276 
	C1650.165161,436.775879 1648.583862,436.255951 1644.218506,438.315765 
	C1638.857666,440.845245 1633.391113,443.371429 1627.705322,444.938324 
	C1619.566650,447.181183 1611.075073,448.143951 1602.936523,450.387268 
	C1587.903931,454.530914 1582.316895,461.830688 1581.347778,478.276093 
z"/>
<path fill="#FEFEFE" opacity="1.000000" stroke="none" 
	d="
M1039.947754,371.025665 
	C1016.666626,371.375854 997.551758,380.150543 981.719666,396.383453 
	C978.032959,400.163574 976.616089,400.066864 973.664734,395.630035 
	C967.224609,385.948395 960.808167,376.250977 954.298950,366.434692 
	C964.446472,354.722168 976.743042,346.103058 990.791992,339.997986 
	C1018.875000,327.794373 1047.942627,326.086182 1077.182495,334.227356 
	C1102.546509,341.289368 1117.528809,362.109802 1117.967285,389.401947 
	C1118.433105,418.384521 1118.196411,447.378387 1118.265137,476.367340 
	C1118.270630,478.699860 1118.234253,481.032898 1118.271973,483.364807 
	C1118.475220,495.947998 1124.259399,500.711578 1136.543945,497.722229 
	C1140.837280,496.677490 1142.242798,497.593079 1142.611816,501.809174 
	C1143.468018,511.592590 1144.668335,521.345886 1145.519409,531.129639 
	C1145.614990,532.230042 1144.660645,534.020752 1143.691162,534.524048 
	C1130.720215,541.257446 1098.452148,543.121216 1085.803589,530.230286 
	C1081.197144,525.535583 1078.458252,519.022339 1074.764648,513.406250 
	C1074.028564,512.287109 1072.915405,510.866486 1071.811157,510.703644 
	C1070.835449,510.559814 1069.148560,511.716431 1068.596802,512.741089 
	C1057.544189,533.266296 1039.412842,541.297791 1017.153809,542.030579 
	C1001.017944,542.561829 985.541870,539.990906 972.132141,530.359009 
	C958.757202,520.752197 952.159180,506.964447 950.320435,490.966461 
	C948.457153,474.754852 949.573975,458.885498 960.331055,445.449615 
	C969.173950,434.404602 981.287231,427.887390 994.566650,424.229858 
	C1009.436096,420.134399 1024.708862,417.522156 1039.744629,414.001343 
	C1045.219482,412.719391 1050.670776,411.052094 1055.862671,408.907074 
	C1065.888550,404.764984 1069.394897,398.235687 1068.034424,387.535309 
	C1067.041870,379.728882 1060.635620,373.690582 1051.329102,372.104156 
	C1047.736694,371.491791 1044.059570,371.376007 1039.947754,371.025665 
M1008.679810,457.149200 
	C996.774719,466.818634 997.933594,492.937408 1013.132446,500.120453 
	C1031.569824,508.834045 1060.562622,502.860718 1066.717773,475.591003 
	C1069.309448,464.108826 1068.646729,451.864105 1069.136230,439.952545 
	C1069.284058,436.355499 1066.598633,436.562897 1064.319580,437.995575 
	C1055.692261,443.418610 1046.043091,445.576416 1036.193237,447.349823 
	C1026.756226,449.048981 1017.066101,450.227112 1008.679810,457.149200 
z"/>
<path fill="#FDFDFD" opacity="1.000000" stroke="none" 
	d="
M1291.611084,490.599487 
	C1295.567017,501.744995 1299.148804,512.635132 1303.209351,523.343872 
	C1304.492676,526.728821 1303.788574,528.399475 1300.959473,530.201355 
	C1286.214722,539.592529 1269.916504,542.546204 1252.776733,542.057495 
	C1235.941040,541.577576 1220.055176,538.184387 1207.089722,526.413513 
	C1194.807251,515.262878 1188.939087,500.768524 1188.212524,484.754395 
	C1187.125977,460.802673 1187.382690,436.788177 1187.166260,412.799500 
	C1187.052002,400.140869 1187.146118,387.480347 1187.146118,374.428558 
	C1176.841797,374.428558 1166.744019,374.428558 1156.330688,374.428558 
	C1156.330688,360.626404 1156.330688,347.211517 1156.330688,333.378876 
	C1166.333740,333.378876 1176.419678,333.378876 1187.057739,333.378876 
	C1187.057739,319.924194 1187.057739,306.868591 1187.057739,293.535034 
	C1204.405518,290.665771 1221.258545,287.878296 1238.555664,285.017395 
	C1238.555664,301.038788 1238.555664,316.779266 1238.555664,332.978638 
	C1258.029663,332.978638 1277.106445,332.978638 1296.530518,332.978638 
	C1296.530518,346.820587 1296.530518,360.207031 1296.530518,374.081543 
	C1277.467651,374.081543 1258.398682,374.081543 1239.379517,374.081543 
	C1239.083740,374.982391 1238.806519,375.432220 1238.807007,375.881744 
	C1238.840210,407.880096 1238.674561,439.880951 1239.036133,471.875793 
	C1239.236694,489.628815 1249.981079,498.862854 1267.633911,496.574860 
	C1273.406616,495.826660 1278.877441,492.900726 1284.557129,491.208252 
	C1286.744019,490.556610 1289.127930,490.565857 1291.611084,490.599487 
z"/>
<path fill="#FEFEFE" opacity="1.000000" stroke="none" 
	d="
M1758.886719,319.999939 
	C1758.886841,296.878876 1758.886841,274.257843 1758.886841,251.401581 
	C1776.066528,251.401581 1792.814453,251.401581 1810.174805,251.401581 
	C1810.174805,253.432220 1810.175049,255.366028 1810.175049,257.299835 
	C1810.174927,329.952332 1810.174072,402.604797 1810.177979,475.257294 
	C1810.178101,477.256348 1810.142334,479.260803 1810.267944,481.253632 
	C1811.121460,494.797089 1817.575439,499.982666 1830.968018,497.932678 
	C1837.688965,496.903931 1837.808105,496.889221 1838.603027,503.341888 
	C1839.864990,513.585999 1841.057983,523.842102 1841.984253,534.119751 
	C1842.113159,535.550110 1840.910767,538.052429 1839.729370,538.505127 
	C1823.777832,544.617188 1790.921631,544.330200 1774.999390,528.738586 
	C1763.221558,517.205383 1759.194336,502.617157 1759.102417,486.965851 
	C1758.776367,431.478699 1758.920654,375.988831 1758.886719,319.999939 
z"/>
<path fill="#020202" opacity="1.000000" stroke="none" 
	d="
M1581.307617,477.848694 
	C1582.316895,461.830688 1587.903931,454.530914 1602.936523,450.387268 
	C1611.075073,448.143951 1619.566650,447.181183 1627.705322,444.938324 
	C1633.391113,443.371429 1638.857666,440.845245 1644.218506,438.315765 
	C1648.583862,436.255951 1650.165161,436.775879 1649.952148,441.483276 
	C1649.457520,452.408905 1649.933105,463.568298 1647.810669,474.192535 
	C1642.697754,499.787659 1617.273804,508.740234 1596.548218,501.255829 
	C1585.949829,497.428589 1582.072876,488.810669 1581.307617,477.848694 
z"/>
<path fill="#020202" opacity="1.000000" stroke="none" 
	d="
M1008.988708,456.961121 
	C1017.066101,450.227112 1026.756226,449.048981 1036.193237,447.349823 
	C1046.043091,445.576416 1055.692261,443.418610 1064.319580,437.995575 
	C1066.598633,436.562897 1069.284058,436.355499 1069.136230,439.952545 
	C1068.646729,451.864105 1069.309448,464.108826 1066.717773,475.591003 
	C1060.562622,502.860718 1031.569824,508.834045 1013.132446,500.120453 
	C997.933594,492.937408 996.774719,466.818634 1008.988708,456.961121 
z"/>
</svg>