<svg xmlns="http://www.w3.org/2000/svg" xmlns:xlink="http://www.w3.org/1999/xlink" zoomAndPan="magnify" preserveAspectRatio="xMidYMid meet" version="1.0" viewBox="2.14 69.17 1191.68 367.91"><defs><g/></defs><g fill="#000000" fill-opacity="1"><g transform="translate(98.15539, 210.510895)"><g><path d="M 116.3125 -38.640625 L 134.34375 -133.984375 L 161.859375 -133.984375 L 132.140625 0 L 104.34375 0 L 82.546875 -89.625 L 60.734375 0 L 32.9375 0 L 3.21875 -133.984375 L 30.734375 -133.984375 L 48.859375 -38.828125 L 70.953125 -133.984375 L 94.3125 -133.984375 Z M 116.3125 -38.640625 "/></g></g><g transform="translate(262.964627, 210.510895)"><g><path d="M 56.03125 1.84375 C 41.4375 1.84375 29.550781 -2.632812 20.375 -11.59375 C 11.207031 -20.550781 6.625 -32.484375 6.625 -47.390625 L 6.625 -49.96875 C 6.625 -59.96875 8.554688 -68.90625 12.421875 -76.78125 C 16.285156 -84.664062 21.757812 -90.738281 28.84375 -95 C 35.925781 -99.269531 44.007812 -101.40625 53.09375 -101.40625 C 66.707031 -101.40625 77.425781 -97.109375 85.25 -88.515625 C 93.070312 -79.929688 96.984375 -67.753906 96.984375 -51.984375 L 96.984375 -41.125 L 33.59375 -41.125 C 34.445312 -34.625 37.035156 -29.410156 41.359375 -25.484375 C 45.679688 -21.554688 51.15625 -19.59375 57.78125 -19.59375 C 68.03125 -19.59375 76.035156 -23.304688 81.796875 -30.734375 L 94.875 -16.109375 C 90.882812 -10.460938 85.484375 -6.054688 78.671875 -2.890625 C 71.867188 0.265625 64.320312 1.84375 56.03125 1.84375 Z M 53 -79.875 C 47.726562 -79.875 43.453125 -78.09375 40.171875 -74.53125 C 36.890625 -70.976562 34.785156 -65.890625 33.859375 -59.265625 L 70.859375 -59.265625 L 70.859375 -61.375 C 70.734375 -67.257812 69.132812 -71.8125 66.0625 -75.03125 C 63 -78.257812 58.644531 -79.875 53 -79.875 Z M 53 -79.875 "/></g></g><g transform="translate(364.831641, 210.510895)"><g><path d="M 38.28125 0 L 11.59375 0 L 11.59375 -141.34375 L 38.28125 -141.34375 Z M 38.28125 0 "/></g></g><g transform="translate(414.798931, 210.510895)"><g><path d="M 51.625 -19.59375 C 56.53125 -19.59375 60.515625 -20.941406 63.578125 -23.640625 C 66.648438 -26.347656 68.25 -29.941406 68.375 -34.421875 L 93.3125 -34.421875 C 93.25 -27.671875 91.40625 -21.488281 87.78125 -15.875 C 84.164062 -10.257812 79.210938 -5.898438 72.921875 -2.796875 C 66.640625 0.296875 59.691406 1.84375 52.078125 1.84375 C 37.847656 1.84375 26.625 -2.679688 18.40625 -11.734375 C 10.1875 -20.785156 6.078125 -33.285156 6.078125 -49.234375 L 6.078125 -50.984375 C 6.078125 -66.316406 10.15625 -78.550781 18.3125 -87.6875 C 26.46875 -96.832031 37.660156 -101.40625 51.890625 -101.40625 C 64.347656 -101.40625 74.332031 -97.859375 81.84375 -90.765625 C 89.363281 -83.679688 93.1875 -74.253906 93.3125 -62.484375 L 68.375 -62.484375 C 68.25 -67.628906 66.648438 -71.8125 63.578125 -75.03125 C 60.515625 -78.257812 56.46875 -79.875 51.4375 -79.875 C 45.238281 -79.875 40.5625 -77.617188 37.40625 -73.109375 C 34.25 -68.597656 32.671875 -61.28125 32.671875 -51.15625 L 32.671875 -48.40625 C 32.671875 -38.15625 34.234375 -30.789062 37.359375 -26.3125 C 40.484375 -21.832031 45.238281 -19.59375 51.625 -19.59375 Z M 51.625 -19.59375 "/></g></g><g transform="translate(513.077136, 210.510895)"><g><path d="M 6.078125 -50.703125 C 6.078125 -60.578125 7.976562 -69.378906 11.78125 -77.109375 C 15.582031 -84.835938 21.054688 -90.816406 28.203125 -95.046875 C 35.347656 -99.285156 43.644531 -101.40625 53.09375 -101.40625 C 66.53125 -101.40625 77.492188 -97.296875 85.984375 -89.078125 C 94.484375 -80.859375 99.222656 -69.691406 100.203125 -55.578125 L 100.390625 -48.765625 C 100.390625 -33.492188 96.125 -21.238281 87.59375 -12 C 79.070312 -2.769531 67.632812 1.84375 53.28125 1.84375 C 38.925781 1.84375 27.46875 -2.753906 18.90625 -11.953125 C 10.351562 -21.160156 6.078125 -33.675781 6.078125 -49.5 Z M 32.671875 -48.765625 C 32.671875 -39.316406 34.445312 -32.09375 38 -27.09375 C 41.5625 -22.09375 46.65625 -19.59375 53.28125 -19.59375 C 59.71875 -19.59375 64.742188 -22.0625 68.359375 -27 C 71.984375 -31.945312 73.796875 -39.847656 73.796875 -50.703125 C 73.796875 -59.960938 71.984375 -67.140625 68.359375 -72.234375 C 64.742188 -77.328125 59.65625 -79.875 53.09375 -79.875 C 46.59375 -79.875 41.5625 -77.34375 38 -72.28125 C 34.445312 -67.21875 32.671875 -59.378906 32.671875 -48.765625 Z M 32.671875 -48.765625 "/></g></g><g transform="translate(619.637213, 210.510895)"><g><path d="M 35.15625 -99.5625 L 35.984375 -88.421875 C 43.035156 -97.078125 52.570312 -101.40625 64.59375 -101.40625 C 77.414062 -101.40625 86.21875 -96.34375 91 -86.21875 C 98 -96.34375 107.96875 -101.40625 120.90625 -101.40625 C 131.707031 -101.40625 139.742188 -98.257812 145.015625 -91.96875 C 150.296875 -85.6875 152.9375 -76.222656 152.9375 -63.578125 L 152.9375 0 L 126.25 0 L 126.25 -63.5 C 126.25 -69.132812 125.144531 -73.253906 122.9375 -75.859375 C 120.726562 -78.472656 116.832031 -79.78125 111.25 -79.78125 C 103.269531 -79.78125 97.75 -75.976562 94.6875 -68.375 L 94.78125 0 L 68.1875 0 L 68.1875 -63.40625 C 68.1875 -69.164062 67.050781 -73.332031 64.78125 -75.90625 C 62.507812 -78.488281 58.644531 -79.78125 53.1875 -79.78125 C 45.644531 -79.78125 40.1875 -76.648438 36.8125 -70.390625 L 36.8125 0 L 10.21875 0 L 10.21875 -99.5625 Z M 35.15625 -99.5625 "/></g></g><g transform="translate(782.790075, 210.510895)"><g><path d="M 56.03125 1.84375 C 41.4375 1.84375 29.550781 -2.632812 20.375 -11.59375 C 11.207031 -20.550781 6.625 -32.484375 6.625 -47.390625 L 6.625 -49.96875 C 6.625 -59.96875 8.554688 -68.90625 12.421875 -76.78125 C 16.285156 -84.664062 21.757812 -90.738281 28.84375 -95 C 35.925781 -99.269531 44.007812 -101.40625 53.09375 -101.40625 C 66.707031 -101.40625 77.425781 -97.109375 85.25 -88.515625 C 93.070312 -79.929688 96.984375 -67.753906 96.984375 -51.984375 L 96.984375 -41.125 L 33.59375 -41.125 C 34.445312 -34.625 37.035156 -29.410156 41.359375 -25.484375 C 45.679688 -21.554688 51.15625 -19.59375 57.78125 -19.59375 C 68.03125 -19.59375 76.035156 -23.304688 81.796875 -30.734375 L 94.875 -16.109375 C 90.882812 -10.460938 85.484375 -6.054688 78.671875 -2.890625 C 71.867188 0.265625 64.320312 1.84375 56.03125 1.84375 Z M 53 -79.875 C 47.726562 -79.875 43.453125 -78.09375 40.171875 -74.53125 C 36.890625 -70.976562 34.785156 -65.890625 33.859375 -59.265625 L 70.859375 -59.265625 L 70.859375 -61.375 C 70.734375 -67.257812 69.132812 -71.8125 66.0625 -75.03125 C 63 -78.257812 58.644531 -79.875 53 -79.875 Z M 53 -79.875 "/></g></g><g transform="translate(884.65709, 210.510895)"><g/></g><g transform="translate(931.587693, 210.510895)"><g><path d="M 42.046875 -124.046875 L 42.046875 -99.5625 L 59.078125 -99.5625 L 59.078125 -80.0625 L 42.046875 -80.0625 L 42.046875 -30.359375 C 42.046875 -26.679688 42.75 -24.046875 44.15625 -22.453125 C 45.570312 -20.859375 48.273438 -20.0625 52.265625 -20.0625 C 55.210938 -20.0625 57.820312 -20.273438 60.09375 -20.703125 L 60.09375 -0.546875 C 54.875 1.046875 49.503906 1.84375 43.984375 1.84375 C 25.335938 1.84375 15.828125 -7.570312 15.453125 -26.40625 L 15.453125 -80.0625 L 0.921875 -80.0625 L 0.921875 -99.5625 L 15.453125 -99.5625 L 15.453125 -124.046875 Z M 42.046875 -124.046875 "/></g></g><g transform="translate(995.266082, 210.510895)"><g><path d="M 6.078125 -50.703125 C 6.078125 -60.578125 7.976562 -69.378906 11.78125 -77.109375 C 15.582031 -84.835938 21.054688 -90.816406 28.203125 -95.046875 C 35.347656 -99.285156 43.644531 -101.40625 53.09375 -101.40625 C 66.53125 -101.40625 77.492188 -97.296875 85.984375 -89.078125 C 94.484375 -80.859375 99.222656 -69.691406 100.203125 -55.578125 L 100.390625 -48.765625 C 100.390625 -33.492188 96.125 -21.238281 87.59375 -12 C 79.070312 -2.769531 67.632812 1.84375 53.28125 1.84375 C 38.925781 1.84375 27.46875 -2.753906 18.90625 -11.953125 C 10.351562 -21.160156 6.078125 -33.675781 6.078125 -49.5 Z M 32.671875 -48.765625 C 32.671875 -39.316406 34.445312 -32.09375 38 -27.09375 C 41.5625 -22.09375 46.65625 -19.59375 53.28125 -19.59375 C 59.71875 -19.59375 64.742188 -22.0625 68.359375 -27 C 71.984375 -31.945312 73.796875 -39.847656 73.796875 -50.703125 C 73.796875 -59.960938 71.984375 -67.140625 68.359375 -72.234375 C 64.742188 -77.328125 59.65625 -79.875 53.09375 -79.875 C 46.59375 -79.875 41.5625 -77.34375 38 -72.28125 C 34.445312 -67.21875 32.671875 -59.378906 32.671875 -48.765625 Z M 32.671875 -48.765625 "/></g></g></g><g fill="#3857ff" fill-opacity="1"><g transform="translate(-2.449127, 434.775895)"><g><path d="M 141.03125 -139.53125 L 89.71875 -139.53125 L 89.71875 0 L 55.21875 0 L 55.21875 -139.53125 L 4.59375 -139.53125 L 4.59375 -167.484375 L 141.03125 -167.484375 Z M 141.03125 -139.53125 "/></g></g></g><g fill="#3857ff" fill-opacity="1"><g transform="translate(137.870618, 434.775895)"><g><path d="M 84.890625 0 C 83.359375 -2.988281 82.25 -6.707031 81.5625 -11.15625 C 73.507812 -2.1875 63.039062 2.296875 50.15625 2.296875 C 37.957031 2.296875 27.851562 -1.226562 19.84375 -8.28125 C 11.832031 -15.332031 7.828125 -24.226562 7.828125 -34.96875 C 7.828125 -48.15625 12.710938 -58.273438 22.484375 -65.328125 C 32.265625 -72.390625 46.394531 -75.957031 64.875 -76.03125 L 80.171875 -76.03125 L 80.171875 -83.171875 C 80.171875 -88.921875 78.691406 -93.519531 75.734375 -96.96875 C 72.785156 -100.414062 68.128906 -102.140625 61.765625 -102.140625 C 56.171875 -102.140625 51.78125 -100.796875 48.59375 -98.109375 C 45.414062 -95.429688 43.828125 -91.753906 43.828125 -87.078125 L 10.578125 -87.078125 C 10.578125 -94.285156 12.800781 -100.957031 17.25 -107.09375 C 21.695312 -113.226562 27.984375 -118.039062 36.109375 -121.53125 C 44.242188 -125.019531 53.375 -126.765625 63.5 -126.765625 C 78.832031 -126.765625 91.003906 -122.910156 100.015625 -115.203125 C 109.023438 -107.492188 113.53125 -96.660156 113.53125 -82.703125 L 113.53125 -28.75 C 113.601562 -16.945312 115.253906 -8.015625 118.484375 -1.953125 L 118.484375 0 Z M 57.40625 -23.125 C 62.3125 -23.125 66.832031 -24.210938 70.96875 -26.390625 C 75.113281 -28.578125 78.179688 -31.515625 80.171875 -35.203125 L 80.171875 -56.59375 L 67.75 -56.59375 C 51.113281 -56.59375 42.257812 -50.84375 41.1875 -39.34375 L 41.0625 -37.390625 C 41.0625 -33.242188 42.519531 -29.828125 45.4375 -27.140625 C 48.351562 -24.460938 52.34375 -23.125 57.40625 -23.125 Z M 57.40625 -23.125 "/></g></g></g><g fill="#3857ff" fill-opacity="1"><g transform="translate(258.750971, 434.775895)"><g><path d="M 52.5625 -155.0625 L 52.5625 -124.453125 L 73.84375 -124.453125 L 73.84375 -100.078125 L 52.5625 -100.078125 L 52.5625 -37.953125 C 52.5625 -33.359375 53.441406 -30.0625 55.203125 -28.0625 C 56.972656 -26.070312 60.351562 -25.078125 65.34375 -25.078125 C 69.019531 -25.078125 72.273438 -25.34375 75.109375 -25.875 L 75.109375 -0.6875 C 68.597656 1.300781 61.890625 2.296875 54.984375 2.296875 C 31.671875 2.296875 19.785156 -9.472656 19.328125 -33.015625 L 19.328125 -100.078125 L 1.15625 -100.078125 L 1.15625 -124.453125 L 19.328125 -124.453125 L 19.328125 -155.0625 Z M 52.5625 -155.0625 "/></g></g></g><g fill="#3857ff" fill-opacity="1"><g transform="translate(332.930781, 434.775895)"><g><path d="M 57.96875 -49.921875 L 46.015625 -37.953125 L 46.015625 0 L 12.765625 0 L 12.765625 -176.6875 L 46.015625 -176.6875 L 46.015625 -78.796875 L 52.453125 -87.078125 L 84.3125 -124.453125 L 124.234375 -124.453125 L 79.25 -72.578125 L 128.140625 0 L 89.953125 0 Z M 57.96875 -49.921875 "/></g></g></g><g fill="#3857ff" fill-opacity="1"><g transform="translate(453.351022, 434.775895)"><g><path d="M 84.890625 0 C 83.359375 -2.988281 82.25 -6.707031 81.5625 -11.15625 C 73.507812 -2.1875 63.039062 2.296875 50.15625 2.296875 C 37.957031 2.296875 27.851562 -1.226562 19.84375 -8.28125 C 11.832031 -15.332031 7.828125 -24.226562 7.828125 -34.96875 C 7.828125 -48.15625 12.710938 -58.273438 22.484375 -65.328125 C 32.265625 -72.390625 46.394531 -75.957031 64.875 -76.03125 L 80.171875 -76.03125 L 80.171875 -83.171875 C 80.171875 -88.921875 78.691406 -93.519531 75.734375 -96.96875 C 72.785156 -100.414062 68.128906 -102.140625 61.765625 -102.140625 C 56.171875 -102.140625 51.78125 -100.796875 48.59375 -98.109375 C 45.414062 -95.429688 43.828125 -91.753906 43.828125 -87.078125 L 10.578125 -87.078125 C 10.578125 -94.285156 12.800781 -100.957031 17.25 -107.09375 C 21.695312 -113.226562 27.984375 -118.039062 36.109375 -121.53125 C 44.242188 -125.019531 53.375 -126.765625 63.5 -126.765625 C 78.832031 -126.765625 91.003906 -122.910156 100.015625 -115.203125 C 109.023438 -107.492188 113.53125 -96.660156 113.53125 -82.703125 L 113.53125 -28.75 C 113.601562 -16.945312 115.253906 -8.015625 118.484375 -1.953125 L 118.484375 0 Z M 57.40625 -23.125 C 62.3125 -23.125 66.832031 -24.210938 70.96875 -26.390625 C 75.113281 -28.578125 78.179688 -31.515625 80.171875 -35.203125 L 80.171875 -56.59375 L 67.75 -56.59375 C 51.113281 -56.59375 42.257812 -50.84375 41.1875 -39.34375 L 41.0625 -37.390625 C 41.0625 -33.242188 42.519531 -29.828125 45.4375 -27.140625 C 48.351562 -24.460938 52.34375 -23.125 57.40625 -23.125 Z M 57.40625 -23.125 "/></g></g></g><g fill="#3857ff" fill-opacity="1"><g transform="translate(574.231365, 434.775895)"><g><path d="M 47.859375 0 L 14.5 0 L 14.5 -176.6875 L 47.859375 -176.6875 Z M 47.859375 0 "/></g></g></g><g fill="#3857ff" fill-opacity="1"><g transform="translate(631.272321, 434.775895)"><g/></g></g><g fill="#3857ff" fill-opacity="1"><g transform="translate(684.51742, 434.775895)"><g><path d="M 146.4375 -55.78125 C 145.125 -37.757812 138.46875 -23.570312 126.46875 -13.21875 C 114.46875 -2.875 98.65625 2.296875 79.03125 2.296875 C 57.550781 2.296875 40.65625 -4.925781 28.34375 -19.375 C 16.039062 -33.832031 9.890625 -53.675781 9.890625 -78.90625 L 9.890625 -89.140625 C 9.890625 -105.242188 12.726562 -119.429688 18.40625 -131.703125 C 24.082031 -143.972656 32.191406 -153.382812 42.734375 -159.9375 C 53.273438 -166.5 65.523438 -169.78125 79.484375 -169.78125 C 98.804688 -169.78125 114.375 -164.601562 126.1875 -154.25 C 138 -143.894531 144.820312 -129.363281 146.65625 -110.65625 L 112.15625 -110.65625 C 111.3125 -121.46875 108.300781 -129.304688 103.125 -134.171875 C 97.945312 -139.046875 90.066406 -141.484375 79.484375 -141.484375 C 67.984375 -141.484375 59.375 -137.359375 53.65625 -129.109375 C 47.945312 -120.867188 45.015625 -108.082031 44.859375 -90.75 L 44.859375 -78.109375 C 44.859375 -60.003906 47.597656 -46.769531 53.078125 -38.40625 C 58.566406 -30.050781 67.21875 -25.875 79.03125 -25.875 C 89.6875 -25.875 97.640625 -28.304688 102.890625 -33.171875 C 108.140625 -38.046875 111.148438 -45.582031 111.921875 -55.78125 Z M 146.4375 -55.78125 "/></g></g></g><g fill="#3857ff" fill-opacity="1"><g transform="translate(833.23409, 434.775895)"><g><path d="M 84.890625 0 C 83.359375 -2.988281 82.25 -6.707031 81.5625 -11.15625 C 73.507812 -2.1875 63.039062 2.296875 50.15625 2.296875 C 37.957031 2.296875 27.851562 -1.226562 19.84375 -8.28125 C 11.832031 -15.332031 7.828125 -24.226562 7.828125 -34.96875 C 7.828125 -48.15625 12.710938 -58.273438 22.484375 -65.328125 C 32.265625 -72.390625 46.394531 -75.957031 64.875 -76.03125 L 80.171875 -76.03125 L 80.171875 -83.171875 C 80.171875 -88.921875 78.691406 -93.519531 75.734375 -96.96875 C 72.785156 -100.414062 68.128906 -102.140625 61.765625 -102.140625 C 56.171875 -102.140625 51.78125 -100.796875 48.59375 -98.109375 C 45.414062 -95.429688 43.828125 -91.753906 43.828125 -87.078125 L 10.578125 -87.078125 C 10.578125 -94.285156 12.800781 -100.957031 17.25 -107.09375 C 21.695312 -113.226562 27.984375 -118.039062 36.109375 -121.53125 C 44.242188 -125.019531 53.375 -126.765625 63.5 -126.765625 C 78.832031 -126.765625 91.003906 -122.910156 100.015625 -115.203125 C 109.023438 -107.492188 113.53125 -96.660156 113.53125 -82.703125 L 113.53125 -28.75 C 113.601562 -16.945312 115.253906 -8.015625 118.484375 -1.953125 L 118.484375 0 Z M 57.40625 -23.125 C 62.3125 -23.125 66.832031 -24.210938 70.96875 -26.390625 C 75.113281 -28.578125 78.179688 -31.515625 80.171875 -35.203125 L 80.171875 -56.59375 L 67.75 -56.59375 C 51.113281 -56.59375 42.257812 -50.84375 41.1875 -39.34375 L 41.0625 -37.390625 C 41.0625 -33.242188 42.519531 -29.828125 45.4375 -27.140625 C 48.351562 -24.460938 52.34375 -23.125 57.40625 -23.125 Z M 57.40625 -23.125 "/></g></g></g><g fill="#3857ff" fill-opacity="1"><g transform="translate(954.114469, 434.775895)"><g><path d="M 124.921875 -61.078125 C 124.921875 -41.140625 120.664062 -25.59375 112.15625 -14.4375 C 103.644531 -3.28125 91.757812 2.296875 76.5 2.296875 C 63 2.296875 52.222656 -2.878906 44.171875 -13.234375 L 42.671875 0 L 12.765625 0 L 12.765625 -176.6875 L 46.015625 -176.6875 L 46.015625 -113.296875 C 53.679688 -122.273438 63.765625 -126.765625 76.265625 -126.765625 C 91.453125 -126.765625 103.359375 -121.179688 111.984375 -110.015625 C 120.609375 -98.859375 124.921875 -83.160156 124.921875 -62.921875 Z M 91.671875 -63.5 C 91.671875 -76.070312 89.675781 -85.253906 85.6875 -91.046875 C 81.707031 -96.835938 75.765625 -99.734375 67.859375 -99.734375 C 57.285156 -99.734375 50.003906 -95.398438 46.015625 -86.734375 L 46.015625 -37.609375 C 50.078125 -28.867188 57.4375 -24.5 68.09375 -24.5 C 78.832031 -24.5 85.890625 -29.789062 89.265625 -40.375 C 90.867188 -45.4375 91.671875 -53.144531 91.671875 -63.5 Z M 91.671875 -63.5 "/></g></g></g><g fill="#3857ff" fill-opacity="1"><g transform="translate(1081.321277, 434.775895)"><g><path d="M 80.171875 -34.390625 C 80.171875 -38.453125 78.15625 -41.648438 74.125 -43.984375 C 70.101562 -46.328125 63.644531 -48.421875 54.75 -50.265625 C 25.15625 -56.472656 10.359375 -69.050781 10.359375 -88 C 10.359375 -99.039062 14.9375 -108.257812 24.09375 -115.65625 C 33.257812 -123.0625 45.242188 -126.765625 60.046875 -126.765625 C 75.835938 -126.765625 88.46875 -123.046875 97.9375 -115.609375 C 107.414062 -108.171875 112.15625 -98.503906 112.15625 -86.609375 L 78.90625 -86.609375 C 78.90625 -91.367188 77.367188 -95.300781 74.296875 -98.40625 C 71.234375 -101.507812 66.445312 -103.0625 59.9375 -103.0625 C 54.332031 -103.0625 49.992188 -101.796875 46.921875 -99.265625 C 43.859375 -96.734375 42.328125 -93.515625 42.328125 -89.609375 C 42.328125 -85.921875 44.070312 -82.945312 47.5625 -80.6875 C 51.050781 -78.425781 56.9375 -76.472656 65.21875 -74.828125 C 73.5 -73.179688 80.476562 -71.320312 86.15625 -69.25 C 103.71875 -62.800781 112.5 -51.644531 112.5 -35.78125 C 112.5 -24.425781 107.628906 -15.238281 97.890625 -8.21875 C 88.148438 -1.207031 75.570312 2.296875 60.15625 2.296875 C 49.726562 2.296875 40.46875 0.4375 32.375 -3.28125 C 24.289062 -7 17.945312 -12.097656 13.34375 -18.578125 C 8.738281 -25.054688 6.4375 -32.050781 6.4375 -39.5625 L 37.953125 -39.5625 C 38.265625 -33.664062 40.453125 -29.144531 44.515625 -26 C 48.578125 -22.851562 54.019531 -21.28125 60.84375 -21.28125 C 67.207031 -21.28125 72.019531 -22.488281 75.28125 -24.90625 C 78.539062 -27.320312 80.171875 -30.484375 80.171875 -34.390625 Z M 80.171875 -34.390625 "/></g></g></g></svg>